<?xml version="1.0" encoding="utf-8"?>
<!-- Generator: Adobe Illustrator 13.0.0, SVG Export Plug-In . SVG Version: 6.00 Build 14948)  -->
<!DOCTYPE svg PUBLIC "-//W3C//DTD SVG 1.1//EN" "http://www.w3.org/Graphics/SVG/1.1/DTD/svg11.dtd">
<svg version="1.1" id="Layer_1" xmlns="http://www.w3.org/2000/svg" xmlns:xlink="http://www.w3.org/1999/xlink" x="0px" y="0px"
	 width="32px" height="32px" viewBox="0 0 32 32" enable-background="new 0 0 32 32" xml:space="preserve">
<g id="icons">
	<g>
		<path fill="#838C8A" d="M5,9L1.354,5.354c-0.195-0.195-0.195-0.512,0-0.707l2.293-2.293c0.195-0.195,0.512-0.195,0.707,0L8,6L5,9z
			"/>
		<path fill="#757F7E" d="M27,9l3.646-3.646c0.194-0.195,0.194-0.512,0-0.707l-2.293-2.293c-0.195-0.195-0.513-0.195-0.707,0L24,6
			L27,9z"/>
		<path fill="#246C57" d="M27.293,9.293l-3.586-3.586c-0.391-0.391-1.023-0.391-1.414,0l-0.754,0.754
			c2.047,1.236,3.534,3.184,4.434,5.566l1.32-1.32C27.684,10.317,27.684,9.683,27.293,9.293z"/>
		<path fill="#377360" d="M10.461,6.461L9.707,5.707c-0.391-0.391-1.024-0.391-1.414,0L4.707,9.293
			c-0.391,0.391-0.391,1.024,0,1.414l1.32,1.32C6.927,9.645,8.415,7.697,10.461,6.461z"/>
		<path fill="#FDEBBB" d="M27,18c0-7.18-3.82-13-11-13v25C23.18,30,27,25.18,27,18z"/>
		<path fill="#FFF3D9" d="M16,5C8.82,5,5,10.82,5,18c0,7.18,3.82,12,11,12V5z"/>
		<path fill="#FDEBBB" d="M16,7.006c-6.643,0-9,5.926-9,11c0,3.735,1.169,10,9,10V7.006z"/>
		<path fill="#FAE09F" d="M25,18c0-5.074-2.357-11-9-11v21C23.831,28,25,21.734,25,18z"/>
		<path fill="#A78EDD" d="M14.792,1.051C14.527,1.018,14.263,1,14,1l0,0l0,0c0,0-2.891-1.109-3.5-0.5
			c-0.489,0.489,0.129,2.447,0.392,3.2C8.351,8.324,11.628,13,16,13V1.127C15.596,1.127,15.192,1.101,14.792,1.051z"/>
		<path fill="#9D85D3" d="M21.107,3.7c0.264-0.753,0.881-2.711,0.393-3.2C20.891-0.109,18,1,18,1l0,0l0,0
			c-0.262,0-0.527,0.018-0.791,0.051c-0.4,0.051-0.804,0.076-1.208,0.076V13C20.372,13,23.648,8.324,21.107,3.7z"/>
		<path fill="#FEF1C6" d="M10.255,8.732C10.971,11.206,13.29,13,16,13v-3c-1.406,0-2.726-0.363-3.874-1
			C11.437,8.618,10.801,8.614,10.255,8.732z"/>
		<path fill="#FFEAA7" d="M21.743,8.732C21.027,11.206,18.709,13,15.999,13v-3c1.405,0,2.726-0.363,3.874-1
			C20.563,8.618,21.198,8.614,21.743,8.732z"/>
		<path fill="#FAE09F" d="M16,14H7.514C7.163,15.312,7,16.684,7,18c0,3.734,1.169,10,9,10V14z"/>
		<path fill="#F7D684" d="M16,14v14c7.831,0,9-6.266,9-10c0-1.316-0.163-2.688-0.514-4H16z"/>
		<g>
			<path fill="#FFFFFF" d="M13.967,7.575c-0.281-0.54-0.902-1.454-2.035-1.882c-0.09-0.034-0.193-0.021-0.27,0.036
				c-0.153,0.112-0.397,0.364-0.569,0.899c-0.176,0.549-0.067,0.97,0.028,1.194C11.168,7.931,11.274,8,11.393,8h2.311
				C13.922,8,14.068,7.769,13.967,7.575z"/>
			<path fill="#96643B" d="M13.967,7.575c-0.26-0.5-0.818-1.317-1.799-1.775c-0.149,0.135-0.342,0.377-0.487,0.828
				c-0.176,0.549-0.067,0.97,0.028,1.194C11.756,7.931,11.862,8,11.981,8h1.723C13.922,8,14.068,7.769,13.967,7.575z"/>
			<path fill="#373F3F" d="M13.29,7.822c0.092-0.216,0.192-0.621,0.039-1.145c-0.21-0.23-0.456-0.461-0.763-0.656
				c-0.103,0.143-0.208,0.333-0.296,0.607c-0.176,0.549-0.067,0.97,0.028,1.194C12.344,7.931,12.45,8,12.569,8h0.449
				C13.138,8,13.244,7.931,13.29,7.822z"/>
		</g>
		<g>
			<path fill="#F7F7F7" d="M18.033,7.575c0.281-0.54,0.902-1.454,2.035-1.882c0.09-0.034,0.193-0.021,0.27,0.036
				c0.153,0.112,0.396,0.364,0.569,0.899c0.176,0.549,0.067,0.97-0.028,1.194C20.832,7.931,20.727,8,20.607,8h-2.312
				C18.078,8,17.932,7.769,18.033,7.575z"/>
			<path fill="#8D5B36" d="M20.29,7.822c0.095-0.223,0.204-0.646,0.028-1.194c-0.146-0.45-0.338-0.693-0.487-0.828
				c-0.979,0.458-1.538,1.274-1.799,1.775C17.932,7.769,18.078,8,18.296,8h1.724C20.139,8,20.244,7.931,20.29,7.822z"/>
			<path fill="#2B3332" d="M19.702,7.822c0.095-0.223,0.204-0.646,0.028-1.194c-0.088-0.274-0.193-0.464-0.297-0.607
				c-0.307,0.196-0.553,0.425-0.763,0.656c-0.153,0.524-0.053,0.928,0.039,1.144C18.756,7.931,18.861,8,18.98,8h0.449
				C19.55,8,19.656,7.931,19.702,7.822z"/>
		</g>
		<path fill="#F7D684" d="M16,19H7.033C7.249,22.753,8.83,28,16,28V19z"/>
		<path fill="#F0C877" d="M16,28c7.17,0,8.751-5.247,8.967-9H16V28z"/>
		<path fill="#F0C877" d="M16,24H8.342c1.222,2.223,3.492,4,7.658,4V24z"/>
		<path fill="#E8BA67" d="M16,28c4.166,0,6.436-1.777,7.658-4H16V28z"/>
		<path fill="#9D85D3" d="M24.497,16.773l-2.032,0.871c-1.656,0.709-3.58,0.34-4.855-0.936l0,0
			c-0.455-0.455-0.367-1.214,0.178-1.555l4.419-2.762c1.31-0.819,3.042-0.253,3.616,1.182l0,0
			C26.322,14.822,25.734,16.242,24.497,16.773z"/>
		<path fill="#A78EDD" d="M7.503,16.773l2.032,0.871c1.657,0.709,3.58,0.34,4.855-0.936l0,0c0.455-0.455,0.368-1.214-0.177-1.555
			l-4.419-2.762c-1.31-0.819-3.042-0.253-3.616,1.182l0,0C5.678,14.822,6.266,16.242,7.503,16.773z"/>
		<path fill="#9D85D3" d="M28.578,29.525L27,29l0.475-0.711c0.862-1.295,0.592-3.035-0.623-4.007l-2.471-1.978
			c-0.747,2.346-2.337,4.563-5.579,5.369C18.561,28.427,18.618,29.266,19,30l-0.775,0.743C18.081,30.881,18,31.07,18,31.27
			c0,0.403,0.327,0.73,0.73,0.73H29.5c0.275,0,0.5-0.225,0.5-0.5v-0.001C30,30.604,29.427,29.809,28.578,29.525z"/>
		<path fill="#A78EDD" d="M13,30c0.382-0.734,0.439-1.573,0.198-2.326c-3.242-0.806-4.832-3.023-5.579-5.369l-2.471,1.978
			c-1.215,0.972-1.485,2.712-0.622,4.007L5,29l-1.578,0.525C2.573,29.809,2,30.604,2,31.499V31.5C2,31.775,2.224,32,2.5,32h10.77
			c0.403,0,0.73-0.327,0.73-0.73c0-0.199-0.081-0.389-0.225-0.526L13,30z"/>
		<path fill="#58458C" d="M12.88,1.33c-0.513-0.142-1.068-0.263-1.47-0.263c-0.201,0-0.286,0.03-0.299,0.03
			c-0.001,0-0.001,0-0.002,0c-0.121,0.204-0.008,0.983,0.244,1.877C11.632,2.57,12.676,1.452,12.88,1.33z"/>
		<path fill="#534184" d="M20.646,2.975c0.256-0.899,0.373-1.679,0.261-1.863c0,0-0.073-0.045-0.316-0.045
			c-0.401,0-0.957,0.12-1.47,0.263C19.324,1.452,20.368,2.57,20.646,2.975z"/>
	</g>
</g>
<g id="labels">
</g>
<path d="M16.266,4.794c0,0-3.371-0.166-4.023,0.023c-0.652,0.19-0.19-0.178-1.332,0.902C9.769,6.8,9.619,8.034,10.285,8.948
	s5.816,1.423,4.784-3.085c0.68-0.237,1.196-0.047,1.196-0.047V4.794z"/>
<path d="M16.004,4.777c0,0,3.37-0.166,4.022,0.023c0.652,0.19,0.191-0.179,1.332,0.902s1.291,2.314,0.625,3.228
	c-0.666,0.913-5.815,1.423-4.783-3.086c-0.679-0.237-1.362-0.042-1.196-0.047C16.171,5.792,16.004,4.777,16.004,4.777z"/>
<rect x="22.185" y="6.925" width="0.611" height="0.32"/>
<rect x="9.504" y="6.783" width="0.612" height="0.32"/>
<rect x="14.853" y="4.748" width="2.445" height="1.115"/>
<rect x="14.853" y="5.109" fill="#A78EDD" width="1.277" height="0.321"/>
<rect x="16.013" y="5.109" fill="#9D85D3" width="1.277" height="0.321"/>
</svg>
