<?xml version="1.0" encoding="utf-8"?>
<!-- Generator: Adobe Illustrator 13.0.0, SVG Export Plug-In . SVG Version: 6.00 Build 14948)  -->
<!DOCTYPE svg PUBLIC "-//W3C//DTD SVG 1.1//EN" "http://www.w3.org/Graphics/SVG/1.1/DTD/svg11.dtd">
<svg version="1.1" id="Layer_1" xmlns="http://www.w3.org/2000/svg" xmlns:xlink="http://www.w3.org/1999/xlink" x="0px" y="0px"
	 width="32px" height="32px" viewBox="0 0 32 32" enable-background="new 0 0 32 32" xml:space="preserve">
<g id="icons">
	<g>
		<path fill="#EFB43F" d="M16,19c0,0,9-3,9-9h2c0,0,2.113,18-11,18V19z"/>
		<path fill="#FF4A00" d="M25,10h2l0.001-0.001c2.101-1.05,2.765-3.727,1.399-5.637l-1.588-2.223c-0.398-0.558-1.229-0.558-1.627,0
			l-1.588,2.223c-1.363,1.91-0.699,4.587,1.4,5.637L25,10z"/>
		<path fill="#FF8F00" d="M25,10c0,0-0.85-1.007-1.029-1.738c-0.199-0.802-0.039-1.646,0.441-2.318l1.181-1.653
			c0.199-0.279,0.614-0.279,0.814,0l1.181,1.653c0.48,0.672,0.643,1.518,0.441,2.319C27.85,8.993,27,10,27,10H25z"/>
		<path fill="#FFD400" d="M25,10l-0.001-0.002c-0.467-0.889-0.347-1.974,0.306-2.739l0.506-0.594c0.1-0.117,0.28-0.117,0.381,0
			l0.506,0.594c0.65,0.764,0.771,1.848,0.306,2.737L27,10H25z"/>
		<path fill="#FFC550" d="M16,13h-5.423c-1.629,1.07-4.327,3.451-6.307,8.309C4.137,21.636,4.384,22,4.737,22H6l0.651,0.65
			c0.193,0.193,0.5,0.199,0.696,0.012c0.365-0.35,0.989-0.932,1.703-1.543c0.053,0.654,0.159,1.285,0.303,1.889
			C8.656,23.639,8,24.598,8,26c0,3,1,4,1,4s-1.574,0-1.929,1.396C6.993,31.703,7.247,32,7.563,32h4.022
			c0.265,0,0.52-0.105,0.707-0.293l0.414-0.414C12.895,31.105,13,30.852,13,30.586v-2.327C13.874,28.73,14.875,29,16,29V13z"/>
		<path fill="#F7BC48" d="M27.73,21.309c-1.98-4.857-4.679-7.239-6.308-8.309H16v16c1.125,0,2.126-0.27,3-0.741v2.327
			c0,0.266,0.105,0.52,0.293,0.707l0.414,0.414C19.895,31.895,20.148,32,20.414,32h4.021c0.317,0,0.571-0.297,0.494-0.604
			C24.574,30,23,30,23,30s1-1,1-4c0-1.402-0.656-2.361-1.354-2.993c0.146-0.604,0.25-1.233,0.304-1.889
			c0.713,0.61,1.338,1.192,1.702,1.543c0.197,0.188,0.504,0.182,0.697-0.011L26,22h1.264C27.616,22,27.863,21.636,27.73,21.309z"/>
		<path fill="#FFCF6E" d="M23,9c0-0.66-0.244-1.4-0.49-1.979c-0.318-0.747-0.531-1.531-0.734-2.317C21.32,2.94,19.967,0,16,0v15
			C19.866,15,23,12.866,23,9z"/>
		<path fill="#FFD98D" d="M16,0c-3.967,0-5.32,2.94-5.775,4.704C10.022,5.49,9.808,6.274,9.49,7.021C9.244,7.6,9,8.34,9,9
			c0,3.866,3.134,6,7,6V0z"/>
		<path fill="#0A6F8E" d="M19.5,5C18.672,5,18,5.672,18,6.5v2.576c0,0.244,0.177,0.453,0.418,0.493h0.001
			c0.703,0.117,1.424,0.009,2.062-0.31l0.242-0.122C20.893,9.053,21,8.88,21,8.691V6.5C21,5.672,20.328,5,19.5,5z"/>
		<path fill="#2B3332" d="M18.973,8.616c-0.156,0-0.472-0.059-0.472-0.51C18.501,7.655,18.5,6,18.5,6c0-0.551,0.449-1,1-1
			s1,0.449,1,1c0,0,0,1.47,0,1.85c0,0.379-0.243,0.463-0.243,0.463C19.859,8.511,19.417,8.616,18.973,8.616z"/>
		<circle fill="#F7F7F7" cx="19.5" cy="6" r="0.5"/>
		<path fill="#FDEBBB" d="M11,23c0,1.927,0.556,3.671,1.456,4.936C13.448,28.614,14.636,29,16,29V16C13.239,16,11,19.134,11,23z"/>
		<path fill="#FAE09F" d="M21,23c0-3.866-2.238-7-5-7v13c1.363,0,2.552-0.386,3.544-1.064C20.443,26.671,21,24.927,21,23z"/>
		<path fill="#0F769B" d="M12.5,5C13.328,5,14,5.672,14,6.5v2.576c0,0.244-0.177,0.453-0.418,0.493h-0.001
			c-0.703,0.117-1.424,0.009-2.061-0.31l-0.243-0.122C11.107,9.053,11,8.88,11,8.691V6.5C11,5.672,11.672,5,12.5,5z"/>
		<path fill="#373F3F" d="M13.027,8.616c0.157,0,0.472-0.059,0.472-0.51C13.499,7.655,13.5,6,13.5,6c0-0.551-0.449-1-1-1
			s-1,0.449-1,1c0,0,0,1.47,0,1.85c0,0.379,0.243,0.463,0.243,0.463C12.14,8.511,12.583,8.616,13.027,8.616z"/>
		<circle fill="#FFFFFF" cx="12.5" cy="6" r="0.5"/>
		<path fill="#FFC550" d="M22.503,11.438c-1.511,0.912-2.911,0.914-5.003,1.034C17.171,12.491,16.338,13,16,13v2
			C18.954,15,21.475,13.75,22.503,11.438L22.503,11.438z"/>
		<path fill="#FFCF6E" d="M9.497,11.438L9.497,11.438C10.525,13.75,13.046,15,16,15v-2c-0.338,0-1.171-0.509-1.5-0.528
			C12.408,12.352,11.009,12.35,9.497,11.438z"/>
	</g>
</g>
<g id="labels">
</g>
<path fill="#ADABAB" d="M15.969-0.167c0,0-0.912-0.076-2.018,0.228c-0.931,0.256-1.999,0.782-2.775,1.849
	c-0.35,0.481-0.64,1.072-0.832,1.798C9.969,5.49,9.719,5.74,9.969,5.302s2.344-0.969,2.625-0.969s1.656,0.031,2.219,0.281
	s1.219,1.656,1.219,1S15.969-0.167,15.969-0.167z"/>
<path fill="#C8C7C7" d="M15.961-0.167c0,0,4.5-0.375,5.625,3.875c0.375,1.781,0.625,2.031,0.375,1.594s-2.344-0.969-2.625-0.969
	s-1.656,0.031-2.219,0.281s-1.219,1.656-1.219,1S15.961-0.167,15.961-0.167z"/>
<path fill="#ADABAB" d="M11.802-1.135c-0.635-0.219-0.969,0.281-1.125,0.563s0.375,2.688,0.375,2.688l2.919-2.053
	C13.971,0.062,12.437-0.917,11.802-1.135z"/>
<path fill="#C8C7C7" d="M20.13-1.115c0.636-0.219,0.969,0.281,1.125,0.563S20.88,2.135,20.88,2.135l-2.919-2.053
	C17.961,0.082,19.494-0.896,20.13-1.115z"/>
<path fill="#FFD98D" d="M15.417,2.313c0,0-0.896-0.958-1.313-1.021c-0.688-0.021-1.292,0.917-1.292,0.917s0.167,0.313,0.917,0.5
	S15.417,2.313,15.417,2.313z"/>
<path fill="#FFCF6E" d="M16.766,2.344c0,0,0.896-0.958,1.313-1.021c0.688-0.021,1.293,0.917,1.293,0.917s-0.168,0.313-0.918,0.5
	S16.766,2.344,16.766,2.344z"/>
<ellipse cx="15.453" cy="4.458" rx="0.078" ry="0.109"/>
<ellipse cx="16.313" cy="4.443" rx="0.078" ry="0.109"/>
</svg>
