<?xml version="1.0" encoding="utf-8"?>
<!-- Generator: Adobe Illustrator 13.0.0, SVG Export Plug-In . SVG Version: 6.00 Build 14948)  -->
<!DOCTYPE svg PUBLIC "-//W3C//DTD SVG 1.1//EN" "http://www.w3.org/Graphics/SVG/1.1/DTD/svg11.dtd">
<svg version="1.1" id="Layer_1" xmlns="http://www.w3.org/2000/svg" xmlns:xlink="http://www.w3.org/1999/xlink" x="0px" y="0px"
	 width="32px" height="32px" viewBox="0 0 32 32" enable-background="new 0 0 32 32" xml:space="preserve">
<g id="labels">
</g>
<path fill="#D799D6" d="M16,24.992c4.042,0,7.917-0.492,9.1-5.992c0.916-4.259,2.484-6.995,3.551-9.042
	c0.933-1.792,2.225-0.542,1.808,0.125c-0.353,0.565-1.333,1.75-1.667,2.625c0.875-1,1.771-1.838,2.083-2.042
	c1.083-0.708,1.552,1.085,0.583,1.625c-2.167,1.208-3.956,3.835-4.458,6.75c-1.083,6.292-5.125,8.458-11,8.458L16,24.992L16,24.992z
	"/>
<path fill="#EBCEEB" d="M11.325,8.131c-1.522-0.263-6.104-0.005-7.312,0.94c1.102,0.735,3.201,1.026,3.569,0.973
	c-0.472,0.262-1.517,1.045-1.622,1.622c4.158-0.534,5.838-2.591,5.838-2.591L11.325,8.131z"/>
<path fill="#E5BDE5" d="M20.659,8.131c1.522-0.262,6.104-0.004,7.312,0.941c-1.102,0.735-3.201,1.026-3.568,0.973
	c0.472,0.262,1.517,1.045,1.621,1.622c-4.157-0.534-5.838-2.591-5.838-2.591L20.659,8.131z"/>
<path fill="#E5BDE5" d="M30.68,0.056c0.074-0.098,0.238-0.06,0.268,0.06c0.354,1.503-1.094,3.26-3.428,5.26
	c-1.346,1.154-4.701,3.129-6.783,3.421c-2.084,0.292-5.105-2.595-4.084-3.458c2.617-2.214,7.877-3.204,11.617-4.006
	C29.818,1.001,30.215,0.661,30.68,0.056z"/>
<path fill="#2B376B" d="M27.52,5.375c-1.346,1.154-4.701,3.129-6.783,3.421c-2.084,0.292-3.029-1.766-2.008-2.629
	c2.541-2.148,6.98-2.914,10.402-3.833c0.123-0.033,0.221,0.098,0.166,0.213C28.756,3.683,28.404,4.298,27.52,5.375z"/>
<path fill="#E0ABDF" d="M19.5,16.143c0,4.107,3.611,6.948,1.936,10.778c-0.192,0.438-0.355,0.815-0.504,1.147
	c0.623,0.183,1.08,0.75,1.08,1.433c0,0.828-0.673,1.5-1.5,1.5c-0.609,0-1.131-0.364-1.365-0.884
	c-0.627,0.082-1.558-0.055-3.147-0.152V16.143H19.5z"/>
<path fill="#E5BDE5" d="M17.012,30.232C17.012,30.232,16.25,19,16,19v-5l2-0.75c0,0,2.592,3.085,2.385,5.5
	c-0.341,3.984-0.816,9.549-0.941,11.064c0.515,0.205,0.861,0.578,0.861,1.006c0,0.652-0.791,1.18-1.769,1.18
	s-1.769-0.527-1.769-1.18C16.768,30.605,16.859,30.406,17.012,30.232z"/>
<path fill="#E0ABDF" d="M16,17.25V14l2-0.75c0,0,1.036,1.233,1.746,2.75C18,17.25,16,17.25,16,17.25z"/>
<path fill="#E5BDE5" d="M21.814,7.911c0.394,2.125,0.549,4.029-0.928,5.505c-0.938,0.938-3.658,1.735-4.565,2.015
	c-0.106,0.033-0.214,0.046-0.322,0.045c0,0,0-9.362,0-12C18.385,3.477,21.287,5.059,21.814,7.911z"/>
<path fill="#EBCEEB" d="M1.382,0.056c-0.075-0.098-0.239-0.06-0.268,0.06c-0.355,1.503,1.094,3.26,3.427,5.26
	c1.346,1.154,4.701,3.129,6.784,3.421s5.105-2.595,4.083-3.458C12.792,3.125,7.531,2.135,3.792,1.333
	C2.242,1.001,1.846,0.661,1.382,0.056z"/>
<path fill="#3A4274" d="M4.542,5.375c1.346,1.154,4.701,3.129,6.784,3.421s3.029-1.766,2.008-2.629
	C10.793,4.018,6.352,3.253,2.931,2.333C2.807,2.3,2.71,2.431,2.765,2.547C3.305,3.683,3.657,4.298,4.542,5.375z"/>
<path fill="#E5BDE5" d="M12.5,16.143c0,4.107-3.611,6.948-1.935,10.778c0.192,0.438,0.355,0.815,0.503,1.147
	c-0.622,0.183-1.079,0.75-1.079,1.433c0,0.828,0.672,1.5,1.5,1.5c0.608,0,1.13-0.364,1.365-0.884
	c0.626,0.082,1.557-0.055,3.147-0.152V16.143H12.5z"/>
<path fill="#EBCEEB" d="M14.988,30.232C14.988,30.232,15.75,19,16,19v-5l-2-0.75c0,0-2.592,3.085-2.385,5.5
	c0.341,3.984,0.817,9.549,0.941,11.064c-0.514,0.205-0.861,0.578-0.861,1.006c0,0.652,0.792,1.18,1.769,1.18s1.769-0.527,1.769-1.18
	C15.233,30.605,15.14,30.406,14.988,30.232z"/>
<path fill="#E5BDE5" d="M16,17.25V14l-2-0.75c0,0-1.036,1.233-1.746,2.75C14,17.25,16,17.25,16,17.25z"/>
<path fill="#EBCEEB" d="M10.196,7.911c-0.393,2.125-0.549,4.029,0.928,5.505c0.938,0.938,3.658,1.735,4.565,2.015
	c0.106,0.033,0.214,0.046,0.322,0.045c0,0,0-9.362,0-12C13.625,3.477,10.723,5.059,10.196,7.911z"/>
<path fill="#C84054" d="M15.167,6.995c0,0.46,0.373,0.833,0.833,0.833V6.162C15.54,6.162,15.167,6.535,15.167,6.995z"/>
<path fill="#B93D4F" d="M16.833,6.995c0,0.46-0.373,0.833-0.833,0.833V6.162C16.46,6.162,16.833,6.535,16.833,6.995z"/>
<path fill="#373F3F" d="M15.138,12.833c-0.122,0-0.184,0.13-0.097,0.206l0.862,0.758c0.027,0.024,0.062,0.035,0.097,0.035v-1
	L15.138,12.833L15.138,12.833z"/>
<path fill="#2B3332" d="M16.96,13.039c0.086-0.076,0.024-0.206-0.097-0.206h-0.862v1c0.035,0,0.07-0.012,0.097-0.035L16.96,13.039z"
	/>
<path fill="#9179C6" d="M11.478,8.75c-0.25,1.25,0.25,2.75,1.25,2.75c0.5,0,1.5-0.331,1.5-0.75C14.228,9,11.577,8.26,11.478,8.75z"
	/>
<path fill="#FAF9F8" d="M14.149,10.26c-0.219-0.709-0.88-1.203-1.493-1.457c-0.211,0.18-0.343,0.429-0.343,0.708
	c0,0.547,0.504,0.99,1.125,0.99C13.711,10.5,13.953,10.403,14.149,10.26z"/>
<path fill="#866EBA" d="M20.521,8.75c0.25,1.25-0.25,2.75-1.25,2.75c-0.5,0-1.5-0.331-1.5-0.75C17.771,9,20.423,8.26,20.521,8.75z"
	/>
<path fill="#FAF9F8" d="M17.852,10.26c0.219-0.709,0.879-1.203,1.492-1.457c0.211,0.18,0.344,0.429,0.344,0.708
	c0,0.547-0.504,0.99-1.125,0.99C18.289,10.5,18.047,10.403,17.852,10.26z"/>
<g>
	<g>
		<ellipse fill="#EE74AA" cx="18.813" cy="3.813" rx="0.688" ry="0.625"/>
		<ellipse fill="#EE74AA" cx="19.75" cy="4.5" rx="0.688" ry="0.625"/>
		<ellipse fill="#EE74AA" cx="18.938" cy="5.313" rx="0.688" ry="0.625"/>
		<ellipse fill="#EE74AA" cx="18.063" cy="4.625" rx="0.688" ry="0.625"/>
		<ellipse fill="#F3AFCC" cx="18.875" cy="4.563" rx="0.469" ry="0.438"/>
	</g>
	<g>
		<ellipse fill="#EE74AA" cx="21.75" cy="6.563" rx="0.688" ry="0.625"/>
		<ellipse fill="#EE74AA" cx="22.688" cy="7.25" rx="0.688" ry="0.625"/>
		<ellipse fill="#EE74AA" cx="21.875" cy="8.063" rx="0.688" ry="0.625"/>
		<ellipse fill="#EE74AA" cx="21" cy="7.375" rx="0.688" ry="0.625"/>
		<ellipse fill="#F3AFCC" cx="21.813" cy="7.313" rx="0.469" ry="0.438"/>
	</g>
	<g>
		<ellipse fill="#EC4D9A" cx="20.688" cy="4.969" rx="0.625" ry="0.656"/>
		<ellipse fill="#EC4D9A" cx="21.5" cy="5.75" rx="0.688" ry="0.625"/>
		<ellipse fill="#EC4D9A" cx="20.938" cy="6.438" rx="0.688" ry="0.625"/>
		<ellipse fill="#EC4D9A" cx="20.063" cy="6.688" rx="0.688" ry="0.625"/>
		<ellipse fill="#EC4D9A" cx="19.688" cy="5.688" rx="0.688" ry="0.625"/>
		<ellipse fill="#EC4D9A" cx="20.188" cy="5.375" rx="0.688" ry="0.625"/>
		<circle fill="#F5BCD3" cx="20.563" cy="6.063" r="0.625"/>
	</g>
</g>
</svg>
