<?xml version="1.0" encoding="utf-8"?>
<!-- Generator: Adobe Illustrator 13.0.0, SVG Export Plug-In . SVG Version: 6.00 Build 14948)  -->
<!DOCTYPE svg PUBLIC "-//W3C//DTD SVG 1.1//EN" "http://www.w3.org/Graphics/SVG/1.1/DTD/svg11.dtd">
<svg version="1.1" id="Layer_1" xmlns="http://www.w3.org/2000/svg" xmlns:xlink="http://www.w3.org/1999/xlink" x="0px" y="0px"
	 width="32px" height="32px" viewBox="0 0 32 32" enable-background="new 0 0 32 32" xml:space="preserve">
<g>
	<path fill="#FFD04D" d="M31.895,17.543c-2.479,4.214-7.049,7.05-12.291,7.05c-0.643,0-1.27-0.057-1.889-0.139
		C18.463,27.077,20.872,29,23.734,29C27.195,29,30,26.195,30,22.734c0-0.057-0.007-0.112-0.009-0.17
		C31.189,21.15,31.732,19.373,31.895,17.543z"/>
	<path fill="#FFD96C" d="M31.895,17.543c0.291-3.329-0.685-6.833-1.302-8.648c-0.141-0.416-0.698-0.462-0.907-0.077
		c-1.457,2.666-5.732,5.37-5.842,5.37l-0.074,2.284c-0.012,0-0.022-0.002-0.035-0.002c-3.459,0-6.264,2.806-6.264,6.265
		c0,0.598,0.088,1.173,0.244,1.72c0.619,0.082,1.246,0.139,1.889,0.139C24.846,24.593,29.414,21.757,31.895,17.543z"/>
</g>
<g>
	<path fill="#F57552" d="M16,23.634l-2.63,0.244v-0.502l-2.448-0.332c0,0-1.53,2.108-0.311,5.31
		c-0.328,0.274-0.542,0.683-0.542,1.145c0,0.828,0.672,1.5,1.5,1.5c0.652,0,1.202-0.419,1.408-1H16V23.634z"/>
	<path fill="#EB6B48" d="M21.527,28.355c1.22-3.201-0.311-5.31-0.311-5.31l-2.447,0.332L16,23.634V30h3.161
		c0.207,0.581,0.756,1,1.407,1c0.828,0,1.5-0.672,1.5-1.5C22.07,29.038,21.855,28.63,21.527,28.355z"/>
</g>
<g>
	<path fill="#FF805D" d="M15,30.232v-5.64h-3.293c0,0,0.734,3.228,0.865,5.22c-0.516,0.205-0.865,0.578-0.865,1.008
		c0,0.652,0.792,1.18,1.769,1.18s1.769-0.527,1.769-1.18C15.244,30.605,15.151,30.406,15,30.232z"/>
	<path fill="#F57552" d="M19.428,29.813c0.131-1.992,0.865-5.22,0.865-5.22H17v5.64c-0.15,0.174-0.245,0.373-0.245,0.588
		c0,0.652,0.792,1.18,1.769,1.18c0.978,0,1.77-0.527,1.77-1.18C20.293,30.391,19.943,30.018,19.428,29.813z"/>
</g>
<g>
	<path fill="#F7C845" d="M16,25.977c1.495,0.123,5.661-0.098,7.9-4.197c0.438-0.803,0.717-1.582,0.892-2.338
		c-2.413,1.761-5.472,2.82-8.792,2.82V25.977z"/>
	<path fill="#FFD04D" d="M21.05,10.327C18.945,8.782,16.339,9.982,16,10v12.262c3.32,0,6.383-1.059,8.796-2.82
		C25.786,15.158,22.967,11.735,21.05,10.327z"/>
	<path fill="#FFD04D" d="M16,25.977c-1.495,0.123-5.65-0.098-7.889-4.197c-0.439-0.803-0.717-1.582-0.892-2.338
		c2.413,1.761,5.46,2.82,8.781,2.82V25.977z"/>
	<path fill="#FFD96C" d="M10.965,10.327C13.068,8.782,15.661,9.982,16,10v12.262c-3.321,0-6.368-1.059-8.781-2.82
		C6.229,15.158,9.048,11.735,10.965,10.327z"/>
</g>
<g>
	<path fill="#FF8D6E" d="M15.323,7c-0.253,0-0.502,0.035-0.752,0.062c0.004-0.097-0.014-0.2-0.071-0.312
		c-0.751-1.468-9.736-6.673-9.736-6.673C4.359-0.174,3.867,0.23,4.033,0.676C4.738,2.569,6.735,6.506,7.053,7
		c0.352,0.545,2.292,1.876,3.331,2.567C10.32,9.706,10.265,9.85,10.225,10c-0.138,0.521-0.208,1.136-0.222,1.783
		C9.959,13.845,10.501,16.239,11.38,17c0.95,0.823,3.466,1.646,4.327,1.912c0.096,0.029,0.195,0.045,0.293,0.045V7H15.323z"/>
	<path fill="#FF805D" d="M16.295,18.911c0.861-0.267,3.375-1.089,4.325-1.911c0.879-0.761,1.421-3.155,1.377-5.217
		c-0.015-0.647-0.084-1.262-0.222-1.783c-0.041-0.15-0.094-0.294-0.159-0.433c1.04-0.691,2.979-2.022,3.331-2.567
		c0.318-0.494,2.314-4.431,3.02-6.324c0.166-0.446-0.326-0.85-0.73-0.599c0,0-8.986,5.205-9.736,6.673
		c-0.057,0.112-0.075,0.214-0.07,0.312C17.178,7.035,16.93,7,16.676,7H16v11.956C16.099,18.956,16.197,18.941,16.295,18.911z"/>
</g>
<path fill="#373F3F" d="M14.242,13.34c-0.035,0.243-0.234,0.433-0.486,0.433c-0.276,0-0.5-0.225-0.5-0.502
	c0-0.233,0.161-0.42,0.375-0.477c-0.014-0.008-0.022-0.018-0.036-0.025c-1.272-0.69-1.585,0.167-1.585,0.167
	s-0.109,0.847,0.353,1.408C12.745,14.807,14,15,14.43,14.714C14.43,14.714,14.678,13.991,14.242,13.34z"/>
<path fill="#373F3F" d="M11.144,8.531c0.568-0.553,1.292-0.943,2.082-1.196l0.024-0.022c0,0-3.467-3.327-6.778-4.765
	C6.26,2.455,6.046,2.68,6.146,2.888L7.19,5.044C7.681,6.058,8.447,6.913,9.4,7.511l1.699,1.067
	C11.115,8.563,11.128,8.546,11.144,8.531z"/>
<path fill="#2B3332" d="M25.527,2.547c-3.311,1.438-6.777,4.765-6.777,4.765l0.023,0.022c0.791,0.254,1.515,0.643,2.082,1.196
	c0.017,0.015,0.029,0.032,0.045,0.048L22.6,7.511c0.955-0.599,1.719-1.454,2.211-2.467l1.043-2.157
	C25.954,2.68,25.74,2.455,25.527,2.547z"/>
<g>
	<g>
		<g>
			<path fill="#F7F6F6" d="M18.742,13.271c0,0.277-0.225,0.502-0.5,0.502c-0.252,0-0.451-0.19-0.486-0.433
				c0.133-0.196,0.328-0.385,0.611-0.546C18.58,12.851,18.742,13.038,18.742,13.271z"/>
		</g>
		<g>
			<path fill="#F7F6F6" d="M18.742,13.271c0,0.277-0.225,0.502-0.5,0.502c-0.252,0-0.451-0.19-0.486-0.433
				c0.133-0.196,0.328-0.385,0.611-0.546C18.58,12.851,18.742,13.038,18.742,13.271z"/>
		</g>
	</g>
	<g>
		<g>
			<path fill="#F7F6F6" d="M13.256,13.271c0,0.277,0.224,0.502,0.5,0.502c0.252,0,0.451-0.19,0.486-0.433
				c-0.132-0.196-0.328-0.385-0.611-0.546C13.418,12.851,13.256,13.038,13.256,13.271z"/>
		</g>
		<g>
			<path fill="#F7F6F6" d="M13.256,13.271c0,0.277,0.224,0.502,0.5,0.502c0.252,0,0.451-0.19,0.486-0.433
				c-0.132-0.196-0.328-0.385-0.611-0.546C13.418,12.851,13.256,13.038,13.256,13.271z"/>
		</g>
	</g>
</g>
<path fill="#2B3332" d="M17.756,13.34c0.035,0.243,0.234,0.433,0.486,0.433c0.275,0,0.5-0.225,0.5-0.502
	c0-0.233-0.161-0.42-0.375-0.477c0.014-0.008,0.021-0.018,0.035-0.025c1.272-0.69,1.586,0.167,1.586,0.167s0.109,0.847-0.354,1.408
	c-0.382,0.464-1.637,0.656-2.066,0.37C17.568,14.714,17.32,13.991,17.756,13.34z"/>
<path fill="#FFE28A" d="M15.298,0.57c0.125-0.187-0.053-0.431-0.271-0.375c-0.384,0.098-0.806,0.228-1.108,0.38
	c-0.595,0.338-1.11,0.809-1.517,1.386C12.156,2.402,12,2.939,12,3.6c0,1.305,0.454,2.083,0.911,2.538
	c-0.379,0.418-0.649,0.914-0.793,1.454C12.919,9.03,14.351,10,16,10V2.678C14.942,1.703,15.007,1.007,15.298,0.57z"/>
<path fill="#FFD96C" d="M12.118,7.592C12.049,7.852,12,8.12,12,8.4c0,1.988,1.791,3.6,4,3.6v-2C14.351,10,12.919,9.03,12.118,7.592z
	"/>
<g>
	<path fill="#373F3F" d="M15.138,16c-0.122,0-0.184,0.13-0.097,0.206l0.862,0.758C15.93,16.988,15.965,17,16,17v-1H15.138z"/>
	<path fill="#2B3332" d="M16.96,16.206C17.046,16.13,16.984,16,16.861,16H16v1c0.035,0,0.07-0.012,0.097-0.035L16.96,16.206z"/>
</g>
<g id="labels">
</g>
<g>
	<g>
		<ellipse fill="#EE74AA" cx="18.854" cy="5.833" rx="0.688" ry="0.625"/>
		<ellipse fill="#EE74AA" cx="19.791" cy="6.521" rx="0.688" ry="0.625"/>
		<ellipse fill="#EE74AA" cx="18.979" cy="7.333" rx="0.688" ry="0.625"/>
		<ellipse fill="#EE74AA" cx="18.104" cy="6.646" rx="0.688" ry="0.625"/>
		<ellipse fill="#F3AFCC" cx="18.916" cy="6.583" rx="0.469" ry="0.438"/>
	</g>
	<g>
		<ellipse fill="#EE74AA" cx="21.791" cy="8.583" rx="0.688" ry="0.625"/>
		<ellipse fill="#EE74AA" cx="22.729" cy="9.271" rx="0.688" ry="0.625"/>
		<ellipse fill="#EE74AA" cx="21.916" cy="10.083" rx="0.688" ry="0.625"/>
		<ellipse fill="#EE74AA" cx="21.041" cy="9.396" rx="0.688" ry="0.625"/>
		<ellipse fill="#F3AFCC" cx="21.854" cy="9.333" rx="0.469" ry="0.438"/>
	</g>
	<g>
		<ellipse fill="#EC4D9A" cx="20.729" cy="6.989" rx="0.625" ry="0.656"/>
		<ellipse fill="#EC4D9A" cx="21.541" cy="7.771" rx="0.688" ry="0.625"/>
		<ellipse fill="#EC4D9A" cx="20.979" cy="8.458" rx="0.688" ry="0.625"/>
		<ellipse fill="#EC4D9A" cx="20.104" cy="8.708" rx="0.688" ry="0.625"/>
		<ellipse fill="#EC4D9A" cx="19.729" cy="7.708" rx="0.688" ry="0.625"/>
		<ellipse fill="#EC4D9A" cx="20.229" cy="7.396" rx="0.688" ry="0.625"/>
		<circle fill="#F5BCD3" cx="20.604" cy="8.083" r="0.625"/>
	</g>
</g>
<g>
	<path fill="#FFD04D" d="M19.941,7.469C19.156,8.974,17.695,10,16,10v2c2.025,0,3.682-1.359,3.945-3.116
		c0.014-0.074,0.033-0.208,0.045-0.392C19.99,8.461,20,8.432,20,8.4c0-0.013-0.004-0.025-0.004-0.038
		C20.004,8.121,19.993,7.813,19.941,7.469z"/>
	<path fill="#FFD96C" d="M19.941,7.469c-0.162-1.106-0.762-2.625-2.662-3.83C16.732,3.291,16.32,2.973,16,2.678V10
		C17.695,10,19.156,8.974,19.941,7.469z"/>
</g>
</svg>
