<?xml version="1.0" encoding="utf-8"?>
<!-- Generator: Adobe Illustrator 13.0.0, SVG Export Plug-In . SVG Version: 6.00 Build 14948)  -->
<!DOCTYPE svg PUBLIC "-//W3C//DTD SVG 1.1//EN" "http://www.w3.org/Graphics/SVG/1.1/DTD/svg11.dtd">
<svg version="1.1" id="Layer_1" xmlns="http://www.w3.org/2000/svg" xmlns:xlink="http://www.w3.org/1999/xlink" x="0px" y="0px"
	 width="32px" height="32px" viewBox="0 0 32 32" enable-background="new 0 0 32 32" xml:space="preserve">
<g id="labels">
</g>
<path fill="#9FC9E4" d="M16,24.88l8.18-9.723c0.161-0.179,0.381-0.293,0.619-0.323l6.639-0.83c0.408-0.051,0.701,0.386,0.496,0.744
	l-3.363,5.883c-0.092,0.162-0.229,0.296-0.394,0.385L16,27.88V24.88z"/>
<path fill="#1D7293" d="M23,20.88l1.18-5.723c0.161-0.179,0.381-0.293,0.619-0.323l6.639-0.83c0.408-0.051,0.701,0.386,0.496,0.744
	l-3.363,5.883c-0.092,0.162-0.229,0.296-0.394,0.385L23,20.88z"/>
<g>
	<path fill="#5CA3D5" d="M9.555,10.884l-5.522,9.575c-0.037,0.064-0.044,0.141-0.019,0.21l1.081,3
		c0.106,0.294,0.452,0.42,0.722,0.263l2.756-1.603c0.064-0.037,0.108-0.101,0.121-0.174l1.863-10.905L9.555,10.884z"/>
	<path fill="#2B7E9F" d="M6.774,18.882l-2.622,1.572c-0.102,0.062-0.147,0.187-0.107,0.299l1.05,2.916
		c0.106,0.294,0.452,0.42,0.722,0.263l2.674-1.556c0.105-0.062,0.151-0.19,0.108-0.304l-1.101-2.938
		C7.39,18.843,7.042,18.721,6.774,18.882z"/>
</g>
<g>
	<path fill="#529CCF" d="M22.445,10.884l5.521,9.575c0.037,0.064,0.045,0.141,0.02,0.21l-1.082,3
		c-0.105,0.294-0.451,0.42-0.721,0.263l-2.757-1.603c-0.063-0.037-0.108-0.101-0.12-0.174L21.443,11.25L22.445,10.884z"/>
	<path fill="#237899" d="M25.227,18.882l2.621,1.572c0.103,0.062,0.147,0.187,0.107,0.299l-1.051,2.916
		c-0.105,0.294-0.451,0.42-0.721,0.263l-2.675-1.556c-0.104-0.062-0.151-0.19-0.108-0.304l1.102-2.938
		C24.609,18.843,24.958,18.721,25.227,18.882z"/>
</g>
<g>
	<path fill="#C1DDEE" d="M30.368,1.018L24.34,2.662c-0.574,0.157-1.048,0.56-1.294,1.102l-3.147,6.923l1.414,1.414l6.924-3.147
		c0.541-0.246,0.945-0.721,1.102-1.294l1.645-6.028C31.084,1.259,30.741,0.916,30.368,1.018z"/>
	<path fill="#529CCF" d="M28.616,3.067L25.008,4.27c-0.104,0.035-0.193,0.102-0.255,0.192l-4.501,6.579l0.707,0.707l6.579-4.501
		c0.09-0.062,0.157-0.151,0.192-0.255l1.203-3.609C28.998,3.188,28.813,3.002,28.616,3.067z"/>
</g>
<g>
	<path fill="#D2E6F3" d="M1.53,1.018l6.028,1.644c0.574,0.157,1.048,0.56,1.294,1.102L12,10.687l-1.414,1.414L3.662,8.955
		C3.121,8.709,2.717,8.234,2.561,7.66L0.917,1.632C0.815,1.259,1.157,0.916,1.53,1.018z"/>
	<path fill="#5CA3D5" d="M3.282,3.067L6.891,4.27c0.104,0.035,0.193,0.102,0.255,0.192l4.501,6.579l-0.707,0.707L4.361,7.247
		c-0.09-0.062-0.157-0.151-0.192-0.255L2.966,3.384C2.901,3.188,3.087,3.002,3.282,3.067z"/>
</g>
<path fill="#C1DDEE" d="M11.495,16.143c-0.105,0.157-2.606,6.948-0.93,10.778c0.192,0.438,0.355,0.815,0.503,1.147
	c-0.622,0.183-1.079,0.75-1.079,1.433c0,0.828,0.672,1.5,1.5,1.5c0.608,0,1.13-0.364,1.365-0.884
	c0.626,0.082,1.546-0.055,3.135-0.152V16.143H11.495z"/>
<path fill="#2B7E9F" d="M12.853,30.116C12.618,30.636,12.096,31,11.488,31c-0.828,0-1.5-0.672-1.5-1.5
	c0.755,0.285,2.018,0.468,2.873-0.021C12.861,29.846,12.853,29.927,12.853,30.116z"/>
<path fill="#D2E6F3" d="M14.988,30.232v-10.64l-4.005,0.876c0,0,1.373,6.912,1.572,9.346c-0.514,0.205-0.861,0.578-0.861,1.006
	c0,0.652,0.792,1.18,1.769,1.18s1.769-0.527,1.769-1.18C15.233,30.605,15.14,30.406,14.988,30.232z"/>
<path fill="#3085A6" d="M14.988,30.232v-4.235l-1.187-0.792c-0.166-0.111-0.383-0.112-0.551-0.003l-1.242,0.809
	c0.255,1.493,0.476,2.935,0.547,3.804c-0.514,0.205-0.861,0.578-0.861,1.006c0,0.652,0.792,1.18,1.769,1.18s1.769-0.527,1.769-1.18
	C15.233,30.605,15.14,30.406,14.988,30.232z"/>
<path fill="#3085A6" d="M14.988,30.232c0,0-1.371,0.435-2.432-0.418c-0.514,0.205-0.861,0.578-0.861,1.006
	c0,0.652,0.792,1.18,1.769,1.18s1.769-0.527,1.769-1.18C15.233,30.605,15.14,30.406,14.988,30.232z"/>
<path fill="#D2E6F3" d="M10.294,20.58c0.422-2.393,1.156-4.354,1.212-4.437H16v8.321C14.41,24.561,9.923,22.686,10.294,20.58z"/>
<path fill="#B0D3EA" d="M20.909,28.066c0.147-0.332,0.31-0.707,0.503-1.146c1.676-3.83-0.825-10.621-0.93-10.778h-4.494v13.821
	c1.59,0.098,2.509,0.234,3.135,0.152C19.359,30.636,19.88,31,20.488,31c0.828,0,1.5-0.672,1.5-1.5
	C21.988,28.818,21.531,28.25,20.909,28.066z"/>
<path fill="#237899" d="M19.123,30.116C19.359,30.636,19.88,31,20.488,31c0.828,0,1.5-0.672,1.5-1.5
	c-0.756,0.285-2.018,0.468-2.873-0.021C19.115,29.846,19.123,29.927,19.123,30.116z"/>
<path fill="#C1DDEE" d="M21.693,20.58c-0.422-2.393-1.155-4.354-1.211-4.437h-4.494v8.321C17.578,24.561,22.064,22.686,21.693,20.58
	z"/>
<path fill="#C1DDEE" d="M19.42,29.814c0.2-2.408,1.572-9.094,1.572-9.094l-4.006-1.128v10.64c-0.15,0.174-0.244,0.373-0.244,0.588
	c0,0.652,0.792,1.18,1.77,1.18c0.977,0,1.768-0.527,1.768-1.18C20.281,30.393,19.934,30.02,19.42,29.814z"/>
<path fill="#E2EFF7" d="M15.312,7c-1.665,0-3.31,0.572-4.354,1.709c-0.423,0.461-0.704,1.025-0.824,1.639
	c-0.086,0.438-0.131,0.927-0.142,1.435C9.948,13.845,10.49,16.239,11.369,17c0.951,0.823,3.466,1.645,4.326,1.909
	c0.101,0.03,0.203,0.044,0.305,0.043V10.66V7H15.312z"/>
<path fill="#D2E6F3" d="M21.855,10.349c-0.121-0.614-0.401-1.178-0.824-1.639C19.988,7.572,18.342,7,16.677,7h-0.665v11.952
	c0.094-0.001,0.188-0.015,0.281-0.043c0.859-0.265,3.377-1.086,4.328-1.909c0.879-0.761,1.421-3.155,1.377-5.217
	C21.986,11.275,21.941,10.787,21.855,10.349z"/>
<path fill="#3085A6" d="M14.231,13.34c-0.035,0.243-0.234,0.433-0.486,0.433c-0.276,0-0.5-0.225-0.5-0.502
	c0-0.233,0.161-0.42,0.375-0.477c-0.014-0.008-0.022-0.018-0.036-0.025c-1.272-0.69-1.585,0.167-1.585,0.167
	s-0.109,0.847,0.353,1.408c0.382,0.464,1.637,0.656,2.067,0.37C14.418,14.714,14.667,13.991,14.231,13.34z"/>
<path fill="#2B7E9F" d="M17.744,13.34c0.035,0.243,0.234,0.433,0.486,0.433c0.275,0,0.5-0.225,0.5-0.502
	c0-0.233-0.162-0.42-0.375-0.477c0.014-0.008,0.021-0.018,0.035-0.025c1.272-0.69,1.586,0.167,1.586,0.167s0.108,0.847-0.354,1.408
	c-0.382,0.464-1.637,0.656-2.066,0.37C17.557,14.714,17.309,13.991,17.744,13.34z"/>
<g>
	<path fill="#FAF9F8" d="M13.245,13.271c0,0.277,0.224,0.502,0.5,0.502c0.252,0,0.451-0.19,0.486-0.433
		c-0.132-0.196-0.328-0.385-0.611-0.546C13.406,12.851,13.245,13.038,13.245,13.271z"/>
	<path fill="#FAF9F8" d="M18.73,13.271c0,0.277-0.225,0.502-0.5,0.502c-0.252,0-0.451-0.19-0.486-0.433
		c0.132-0.196,0.328-0.385,0.611-0.546C18.568,12.851,18.73,13.038,18.73,13.271z"/>
</g>
<g>
	<path fill="#3085A6" d="M15.138,16c-0.122,0-0.184,0.13-0.097,0.206l0.862,0.758C15.93,16.988,15.965,17,16,17v-1H15.138z"/>
	<path fill="#2B7E9F" d="M16.96,16.206C17.046,16.13,16.984,16,16.861,16H16v1c0.035,0,0.07-0.012,0.097-0.035L16.96,16.206z"/>
</g>
<path fill="#2B7E9F" d="M16.988,30.232v-4.235l1.187-0.792c0.166-0.111,0.384-0.112,0.552-0.003l1.241,0.809
	c-0.255,1.493-0.476,2.935-0.547,3.804c0.515,0.205,0.861,0.578,0.861,1.006c0,0.652-0.792,1.18-1.769,1.18
	c-0.978,0-1.77-0.527-1.77-1.18C16.743,30.605,16.837,30.406,16.988,30.232z"/>
<path fill="#5CA3D5" d="M14.196,6.294C14.1,6.15,13.891,6.145,13.788,6.283l-2.455,3.274c-0.178,0.237-0.112,0.576,0.143,0.729
	l3.496,2.097c0.317,0.19,0.673,0.285,1.029,0.285V9L14.196,6.294z"/>
<path fill="#65A9DC" d="M15.786,4.564l-2.585,4.308c-0.118,0.197-0.087,0.449,0.075,0.611l2.37,2.37
	c0.195,0.195,0.512,0.195,0.707,0l2.37-2.37c0.162-0.162,0.193-0.414,0.075-0.611l-2.585-4.308
	C16.117,4.403,15.883,4.403,15.786,4.564z"/>
<g>
	<path fill="#529CCF" d="M20.667,9.556l-2.455-3.274C18.109,6.145,17.9,6.15,17.805,6.294L16,9v3.668
		c0.356,0,0.712-0.095,1.029-0.285l3.496-2.097C20.779,10.133,20.846,9.794,20.667,9.556z"/>
</g>
<g>
	<path fill="#5CA3D5" d="M18.799,8.872l-2.585-4.308C16.166,4.483,16.083,4.443,16,4.443V12c0.128,0,0.256-0.049,0.354-0.146
		l2.371-2.37C18.887,9.321,18.917,9.069,18.799,8.872z"/>
</g>
<g>
	<g>
		<ellipse fill="#EE74AA" cx="19.688" cy="7.5" rx="0.688" ry="0.625"/>
		<ellipse fill="#EE74AA" cx="20.625" cy="8.188" rx="0.688" ry="0.625"/>
		<ellipse fill="#EE74AA" cx="19.813" cy="9" rx="0.688" ry="0.625"/>
		<ellipse fill="#EE74AA" cx="18.938" cy="8.313" rx="0.688" ry="0.625"/>
		<ellipse fill="#F3AFCC" cx="19.75" cy="8.25" rx="0.469" ry="0.438"/>
	</g>
	<g>
		<ellipse fill="#EE74AA" cx="22.625" cy="10.25" rx="0.688" ry="0.625"/>
		<ellipse fill="#EE74AA" cx="23.563" cy="10.938" rx="0.688" ry="0.625"/>
		<ellipse fill="#EE74AA" cx="22.75" cy="11.75" rx="0.688" ry="0.625"/>
		<ellipse fill="#EE74AA" cx="21.875" cy="11.063" rx="0.688" ry="0.625"/>
		<ellipse fill="#F3AFCC" cx="22.688" cy="11" rx="0.469" ry="0.438"/>
	</g>
	<g>
		<ellipse fill="#EC4D9A" cx="21.563" cy="8.656" rx="0.625" ry="0.656"/>
		<ellipse fill="#EC4D9A" cx="22.375" cy="9.438" rx="0.688" ry="0.625"/>
		<ellipse fill="#EC4D9A" cx="21.813" cy="10.125" rx="0.688" ry="0.625"/>
		<ellipse fill="#EC4D9A" cx="20.938" cy="10.375" rx="0.688" ry="0.625"/>
		<ellipse fill="#EC4D9A" cx="20.563" cy="9.375" rx="0.688" ry="0.625"/>
		<ellipse fill="#EC4D9A" cx="21.063" cy="9.063" rx="0.688" ry="0.625"/>
		<circle fill="#F5BCD3" cx="21.438" cy="9.75" r="0.625"/>
	</g>
</g>
</svg>
