<?xml version="1.0" encoding="utf-8"?>
<!-- Generator: Adobe Illustrator 13.0.0, SVG Export Plug-In . SVG Version: 6.00 Build 14948)  -->
<!DOCTYPE svg PUBLIC "-//W3C//DTD SVG 1.1//EN" "http://www.w3.org/Graphics/SVG/1.1/DTD/svg11.dtd">
<svg version="1.1" id="Layer_1" xmlns="http://www.w3.org/2000/svg" xmlns:xlink="http://www.w3.org/1999/xlink" x="0px" y="0px"
	 width="32px" height="32px" viewBox="0 0 32 32" enable-background="new 0 0 32 32" xml:space="preserve">
<path fill="#78DF7C" d="M21.117,28.136c0.095-0.172,0.195-0.356,0.306-0.558c1.677-3.048-0.825-8.453-0.93-8.578H16v11
	c1.592,0.078,2.512,0.186,3.139,0.121C19.374,30.639,19.895,31,20.5,31c0.828,0,1.5-0.672,1.5-1.5
	C22,28.893,21.637,28.372,21.117,28.136z"/>
<path fill="#84ED82" d="M11.507,19c-0.105,0.125-2.606,5.53-0.93,8.578c0.111,0.201,0.211,0.386,0.306,0.558
	C10.363,28.372,10,28.893,10,29.5c0,0.828,0.672,1.5,1.5,1.5c0.606,0,1.126-0.361,1.362-0.879C13.488,30.188,14.408,30.078,16,30V19
	H11.507z"/>
<g>
	<path fill="#8FF888" d="M16,24.408V13l-7.434,0.052l2.171,4.655L7,18.593l2.211,1.671l-3.054,2.82
		c-0.151,0.141-0.078,0.393,0.124,0.43l3.437,0.633l-1.376,4.229c-0.071,0.218,0.165,0.409,0.364,0.293l3.425-2
		c0.188,1.015,0.381,2.214,0.442,3.144c-0.516,0.207-0.865,0.58-0.865,1.01c0,0.65,0.792,1.179,1.769,1.179s1.769-0.528,1.769-1.179
		c0-0.217-0.093-0.415-0.245-0.59v-5.239L16,24.408z"/>
	<path fill="#84ED82" d="M23.658,28.376l-1.376-4.229l3.437-0.633c0.203-0.037,0.276-0.289,0.124-0.43l-3.054-2.82L25,18.593
		l-3.736-0.886l2.17-4.655L16,13v11.408l1,0.584v5.24c-0.15,0.174-0.245,0.373-0.245,0.588c0,0.652,0.792,1.18,1.769,1.18
		c0.978,0,1.77-0.527,1.77-1.18c0-0.43-0.35-0.803-0.865-1.008c0.061-0.931,0.254-2.129,0.442-3.145l3.425,2
		C23.493,28.785,23.729,28.594,23.658,28.376z"/>
</g>
<g>
	<path fill="#F7F7F7" d="M15.759,1.341l-1.096,3.833l-2.084-1.839c-0.145-0.128-0.375-0.05-0.411,0.141l-0.803,4.227L6.648,6.977
		C6.421,6.943,6.271,7.206,6.417,7.384L8.5,9.913l-5.349,1.851c-0.221,0.076-0.225,0.387-0.007,0.47L8.5,14.267l-3.382,4.209
		C4.98,18.648,5.116,18.9,5.335,18.882L11,18.378l-0.862,2.388c-0.076,0.209,0.14,0.405,0.341,0.311l3.021-1.42l2.291,3.513
		c0.049,0.076,0.129,0.113,0.209,0.113V1.16C15.897,1.16,15.794,1.22,15.759,1.341z"/>
	<path fill="#EDEEEE" d="M16.21,23.169l2.29-3.502l3.021,1.42c0.201,0.095,0.416-0.103,0.34-0.312L21,18.389l5.665,0.504
		c0.219,0.02,0.354-0.233,0.217-0.406L23.5,14.278l5.355-2.033c0.219-0.083,0.215-0.394-0.006-0.47L23.5,9.924l2.083-2.529
		c0.146-0.177-0.004-0.441-0.231-0.406l-4.717,0.726l-0.803-4.227c-0.036-0.19-0.266-0.269-0.411-0.141l-2.084,1.839L16.24,1.341
		C16.206,1.221,16.103,1.16,16,1.16v22.122C16.08,23.282,16.16,23.244,16.21,23.169z"/>
</g>
<g>
	<path fill="#A9FAA2" d="M15.908,7l-1.379-2.789c-0.117-0.237-0.474-0.154-0.474,0.111v2.799c-0.582,0.106-1.123,0.311-1.633,0.565
		L11.243,4.54c-0.068-0.084-0.131-0.161-0.198-0.245L4.378,0.036c-0.168-0.115-0.38,0.065-0.294,0.25l2.771,4.961L6.548,5.159
		c-0.209-0.061-0.39,0.157-0.293,0.352L6.97,6.94c0.02,0.039,0.049,0.072,0.085,0.097l2.224,1.476l0.877,1.861
		c-0.036,0.188-0.073,0.373-0.095,0.577l-1.905,0.225c-0.254,0.03-0.304,0.377-0.07,0.478l1.927,0.829
		c0.024,0.606,0.094,1.216,0.204,1.794l-1.136,1.108c-0.161,0.157-0.05,0.429,0.175,0.429h1.394
		c0.003,0.008,0.003,0.009,0.007,0.017l-1.079,0.995c-0.176,0.162-0.046,0.454,0.192,0.433l1.744-0.155
		c1.031,0.789,3.376,1.557,4.196,1.811c0.096,0.029,0.194,0.044,0.291,0.044V7H15.908z"/>
	<path fill="#8FF888" d="M16.293,18.911c0.861-0.267,3.376-1.089,4.326-1.911c0.179-0.155,0.339-0.391,0.488-0.664l0.14-0.011
		l1.001,0.368c0.242,0.089,0.443-0.203,0.275-0.398l-0.785-0.908L22.92,15.7c0.223,0.059,0.398-0.187,0.273-0.379l-1-1.526
		l1.396-0.65c0.213-0.099,0.185-0.412-0.045-0.469l-1.558-0.391c0.005-0.168,0.011-0.337,0.008-0.502
		c-0.004-0.199-0.023-0.386-0.04-0.576l1.842-1.621c0.164-0.144,0.077-0.415-0.14-0.436l-1.647-0.166l2.933-1.946
		c0.037-0.024,0.066-0.057,0.086-0.097l0.715-1.43c0.097-0.195-0.084-0.413-0.293-0.352l-0.307,0.088l2.771-4.961
		C28,0.101,27.788-0.079,27.62,0.036l-6.681,4.268c-0.062,0.076-0.117,0.146-0.18,0.222L19.584,7.67
		c-0.297-0.143-0.605-0.269-0.928-0.365l-0.223-4.039c-0.014-0.259-0.365-0.328-0.476-0.093L16.146,7H16v11.956
		C16.098,18.956,16.197,18.941,16.293,18.911z"/>
</g>
<g>
	<g>
		<path fill="#FAF9F8" d="M18.742,13.271c0,0.277-0.225,0.502-0.5,0.502c-0.252,0-0.451-0.19-0.486-0.433
			c0.133-0.196,0.328-0.385,0.611-0.546C18.581,12.851,18.742,13.038,18.742,13.271z"/>
	</g>
	<g>
		<path fill="#FAF9F8" d="M18.742,13.271c0,0.277-0.225,0.502-0.5,0.502c-0.252,0-0.451-0.19-0.486-0.433
			c0.133-0.196,0.328-0.385,0.611-0.546C18.581,12.851,18.742,13.038,18.742,13.271z"/>
	</g>
</g>
<path fill="#231F20" d="M17.756,13.34c0.035,0.243,0.234,0.433,0.486,0.433c0.275,0,0.5-0.225,0.5-0.502
	c0-0.233-0.161-0.42-0.375-0.477c0.014-0.008,0.021-0.018,0.035-0.025c1.272-0.69,1.586,0.167,1.586,0.167s0.109,0.847-0.354,1.408
	c-0.382,0.464-1.637,0.656-2.066,0.37C17.568,14.714,17.32,13.991,17.756,13.34z"/>
<path fill="#246C57" d="M24.947,3.079l-3.522,2.315c-0.063,0.042-0.114,0.101-0.146,0.171l-1.092,2.444
	c0.237,0.156,0.467,0.325,0.668,0.522c0.112,0.109,0.217,0.227,0.315,0.347l2.47-2.236c0.039-0.035,0.07-0.078,0.092-0.125
	l1.506-3.185C25.324,3.149,25.116,2.968,24.947,3.079z"/>
<path fill="#377360" d="M8.361,6.642l1.48,1.341l1.941-0.043L10.72,5.566c-0.031-0.07-0.082-0.129-0.145-0.171L7.053,3.079
	c-0.169-0.111-0.377,0.07-0.291,0.253l1.505,3.185C8.291,6.564,8.322,6.606,8.361,6.642z"/>
<path fill="#373F3F" d="M14.243,13.34c-0.035,0.243-0.234,0.433-0.486,0.433c-0.276,0-0.5-0.225-0.5-0.502
	c0-0.233,0.161-0.42,0.375-0.477c-0.014-0.008-0.022-0.018-0.036-0.025c-1.272-0.69-1.585,0.167-1.585,0.167
	s-0.109,0.847,0.353,1.408C12.745,14.807,14,15,14.43,14.714C14.43,14.714,14.678,13.991,14.243,13.34z"/>
<g>
	<g>
		<path fill="#FAF9F8" d="M13.257,13.271c0,0.277,0.224,0.502,0.5,0.502c0.252,0,0.451-0.19,0.486-0.433
			c-0.132-0.196-0.328-0.385-0.611-0.546C13.418,12.851,13.257,13.038,13.257,13.271z"/>
	</g>
	<g>
		<path fill="#FAF9F8" d="M13.257,13.271c0,0.277,0.224,0.502,0.5,0.502c0.252,0,0.451-0.19,0.486-0.433
			c-0.132-0.196-0.328-0.385-0.611-0.546C13.418,12.851,13.257,13.038,13.257,13.271z"/>
	</g>
</g>
<g>
	<path fill="#373F3F" d="M15.138,16c-0.122,0-0.184,0.13-0.097,0.206l0.862,0.758C15.93,16.988,15.965,17,16,17v-1H15.138z"/>
	<path fill="#2B3332" d="M16.96,16.206C17.046,16.13,16.984,16,16.861,16H16v1c0.035,0,0.07-0.012,0.097-0.035L16.96,16.206z"/>
</g>
<g id="labels">
</g>
<g>
	<g>
		<ellipse fill="#EE74AA" cx="19.563" cy="5.938" rx="0.688" ry="0.625"/>
		<ellipse fill="#EE74AA" cx="20.5" cy="6.625" rx="0.688" ry="0.625"/>
		<ellipse fill="#EE74AA" cx="19.688" cy="7.438" rx="0.688" ry="0.625"/>
		<ellipse fill="#EE74AA" cx="18.813" cy="6.75" rx="0.688" ry="0.625"/>
		<ellipse fill="#F3AFCC" cx="19.625" cy="6.688" rx="0.469" ry="0.438"/>
	</g>
	<g>
		<ellipse fill="#EE74AA" cx="22.5" cy="8.688" rx="0.688" ry="0.625"/>
		<ellipse fill="#EE74AA" cx="23.438" cy="9.375" rx="0.688" ry="0.625"/>
		<ellipse fill="#EE74AA" cx="22.625" cy="10.188" rx="0.688" ry="0.625"/>
		<ellipse fill="#EE74AA" cx="21.75" cy="9.5" rx="0.688" ry="0.625"/>
		<ellipse fill="#F3AFCC" cx="22.563" cy="9.438" rx="0.469" ry="0.438"/>
	</g>
	<g>
		<ellipse fill="#EC4D9A" cx="21.438" cy="7.094" rx="0.625" ry="0.656"/>
		<ellipse fill="#EC4D9A" cx="22.25" cy="7.875" rx="0.688" ry="0.625"/>
		<ellipse fill="#EC4D9A" cx="21.688" cy="8.563" rx="0.688" ry="0.625"/>
		<ellipse fill="#EC4D9A" cx="20.813" cy="8.813" rx="0.688" ry="0.625"/>
		<ellipse fill="#EC4D9A" cx="20.438" cy="7.813" rx="0.688" ry="0.625"/>
		<ellipse fill="#EC4D9A" cx="20.938" cy="7.5" rx="0.688" ry="0.625"/>
		<circle fill="#F5BCD3" cx="21.313" cy="8.188" r="0.625"/>
	</g>
</g>
</svg>
