<?xml version="1.0" encoding="utf-8"?>
<!-- Generator: Adobe Illustrator 13.0.0, SVG Export Plug-In . SVG Version: 6.00 Build 14948)  -->
<!DOCTYPE svg PUBLIC "-//W3C//DTD SVG 1.1//EN" "http://www.w3.org/Graphics/SVG/1.1/DTD/svg11.dtd">
<svg version="1.1" id="Layer_1" xmlns="http://www.w3.org/2000/svg" xmlns:xlink="http://www.w3.org/1999/xlink" x="0px" y="0px"
	 width="32px" height="32px" viewBox="0 0 32 32" enable-background="new 0 0 32 32" xml:space="preserve">
<g id="icons">
	<g>
		<path fill="#945BA0" d="M14.997,20.939c0,0,0.077-0.023,0.22-0.067c0.151-0.054,0.372-0.132,0.654-0.231
			c0.564-0.215,1.372-0.548,2.268-1.041c0.437-0.254,0.913-0.539,1.34-0.892c0.424-0.349,0.857-0.742,1.142-1.188
			c0.081-0.108,0.122-0.225,0.19-0.338l0.049-0.086c-0.002,0.027,0.027-0.063,0.037-0.091l0.096-0.252
			c0.104-0.295,0.206-0.614,0.313-0.972c0.207-0.701,0.418-1.441,0.696-2.18c0.281-0.737,0.619-1.485,1.136-2.164
			c0.5-0.673,1.293-1.279,2.176-1.398c0.213-0.013,0.426-0.025,0.635-0.038c0.184,0.018,0.365,0.037,0.545,0.055
			c0.382,0.06,0.779,0.17,1.107,0.312c0.678,0.293,1.23,0.767,1.604,1.289c0.37,0.527,0.596,1.084,0.685,1.599
			c0.096,0.513,0.123,0.776,0.106,1.17c-0.015,0.393-0.045,0.724-0.088,0.95c-0.046,0.224-0.06,0.359-0.06,0.359l-0.018,0.203
			c-0.059,0.643-0.627,1.119-1.271,1.059c-0.643-0.058-1.117-0.627-1.059-1.271c0.038-0.424,0.3-0.775,0.657-0.948
			c0,0,0.067-0.033,0.173-0.123c0.113-0.084,0.266-0.239,0.372-0.484c0.128-0.24,0.188-0.374,0.157-0.757
			c-0.043-0.377-0.15-0.819-0.432-1.204c-0.269-0.39-0.689-0.714-1.207-0.884c-0.271-0.09-0.515-0.126-0.799-0.152l-0.471-0.004
			l-0.398,0.066c-1.029,0.249-1.626,1.539-1.975,2.877c-0.182,0.677-0.311,1.388-0.446,2.11c-0.065,0.354-0.137,0.74-0.229,1.136
			l-0.064,0.261c-0.018,0.058-0.008,0.054-0.046,0.162l-0.06,0.157c-0.082,0.207-0.153,0.429-0.254,0.617
			c-0.387,0.785-0.91,1.373-1.412,1.897c-0.506,0.524-1.032,0.923-1.514,1.303c-0.977,0.722-1.84,1.22-2.455,1.552
			c-0.315,0.161-0.563,0.289-0.73,0.375c-0.181,0.084-0.277,0.129-0.277,0.129c-0.771,0.358-1.687,0.025-2.046-0.746
			c-0.359-0.771-0.026-1.687,0.745-2.045c0.061-0.028,0.122-0.053,0.185-0.072L14.997,20.939z"/>
		<g>
			<g>
				<path fill="#B8A5E4" d="M10.888,27.53c-0.145-0.319-0.117-0.705,0.105-1.007c0.105-0.143,0.24-0.248,0.391-0.317
					c0.319-0.146,0.705-0.118,1.007,0.104l1.201,0.885c0.445,0.326,0.54,0.953,0.212,1.396c-0.105,0.143-0.24,0.249-0.391,0.318
					c-0.319,0.145-0.705,0.117-1.007-0.105l-1.201-0.884C11.063,27.816,10.957,27.682,10.888,27.53z"/>
			</g>
			<g>
				<path fill="#B8A5E4" d="M10.888,27.53c-0.145-0.319-0.117-0.705,0.105-1.007c0.105-0.143,0.24-0.248,0.391-0.317
					c0.319-0.146,0.705-0.118,1.007,0.104l1.201,0.885c0.445,0.326,0.54,0.953,0.212,1.396c-0.105,0.143-0.24,0.249-0.391,0.318
					c-0.319,0.145-0.705,0.117-1.007-0.105l-1.201-0.884C11.063,27.816,10.957,27.682,10.888,27.53z"/>
			</g>
		</g>
		<path fill="#C6B7E9" d="M12.98,18.366c0,0-4.201,1.134-4.201,4.634c0,1.792,1.275,3.436,1.722,3.734l-1.58,3.384
			c-0.23,0.835,0.404,1.666,1.41,1.847c1.069,0.192,2.103-0.428,2.223-1.334l0.736-6.382l0.763-0.75L12.98,18.366z"/>
		<path fill="#D4C9EF" d="M16,11.688v13.594c0,0-3,0.405-3-3.625c0-4.031-1.13-5.281,0.181-6.75
			c1.311-1.469,1.717-3.103,0.809-5.438C13.345,7.809,16,11.688,16,11.688z"/>
		<path fill="#E3DBF4" d="M12.621,1.207L11.56,0.146c-0.195-0.195-0.512-0.195-0.707,0l-0.707,0.707
			c-0.195,0.195-0.195,0.512,0,0.707l1.061,1.061l0.663,1.37l2.121-2.121L12.621,1.207z"/>
		<path fill="#B370B9" d="M16,25.999c0,0-3,0.178-3-3.565C13,18.689,16,18,16,18V25.999z"/>
		<path fill="#D4C9EF" d="M12.673,15.068c0.429-0.349,0.493-0.979,0.146-1.407c-0.349-0.429-0.978-0.495-1.407-0.146L6.078,17.85
			c-0.164,0.133-0.281,0.315-0.336,0.521c0,0-1.3,5.015-1.304,5.085c-0.667,1.379-0.286,2.595,0.116,3.143
			c0.049,0.066,0.104,0.125,0.164,0.176c0.341,0.285,0.844,0.311,1.215,0.031c0.098-0.074,0.178-0.164,0.241-0.264
			c0.167,0.004,0.338-0.035,0.496-0.122c0.478-0.265,0.653-0.872,0.393-1.358c-0.136-0.254-0.18-0.627-0.176-0.994l0.419,0.076
			c0.364,0.068,0.717-0.078,0.937-0.348c0.104-0.128,0.178-0.283,0.209-0.457c0.098-0.542-0.257-1.064-0.792-1.162l-0.816-0.15
			l0.749-2.83L12.673,15.068z"/>
		<path fill="#E3DBF4" d="M10.313,15.156l1.977,1.514c0.28,0.214,0.623,0.33,0.976,0.33h0.816c0.528,0,1.015-0.285,1.273-0.746
			L16,16.104V13h-3.813c-0.638,0-1.249,0.253-1.7,0.703l-0.252,0.252C9.892,14.297,9.929,14.861,10.313,15.156z"/>
		<path fill="#A78EDD" d="M21.111,27.53c0.145-0.319,0.117-0.705-0.105-1.007c-0.105-0.143-0.24-0.248-0.391-0.317
			c-0.319-0.146-0.705-0.118-1.008,0.104l-1.2,0.885c-0.445,0.326-0.54,0.953-0.212,1.396c0.104,0.143,0.24,0.249,0.391,0.318
			c0.318,0.145,0.705,0.117,1.007-0.105l1.201-0.884C20.936,27.816,21.043,27.682,21.111,27.53z"/>
		<path fill="#C6B7E9" d="M27.563,23.454c-0.004-0.07-1.305-5.085-1.305-5.085c-0.055-0.205-0.172-0.387-0.336-0.521l-5.334-4.333
			c-0.43-0.349-1.059-0.283-1.406,0.146c-0.349,0.428-0.283,1.058,0.146,1.407l5.081,4.128l0.749,2.828l-0.816,0.151
			c-0.534,0.099-0.89,0.62-0.792,1.162c0.031,0.174,0.105,0.33,0.209,0.457c0.221,0.271,0.573,0.415,0.938,0.349l0.418-0.078
			c0.005,0.369-0.038,0.742-0.176,0.996c-0.26,0.484-0.084,1.092,0.394,1.357c0.157,0.087,0.328,0.126,0.496,0.122
			c0.063,0.099,0.144,0.188,0.241,0.263c0.371,0.28,0.873,0.256,1.215-0.031c0.06-0.049,0.115-0.108,0.164-0.174
			C27.848,26.049,28.23,24.833,27.563,23.454z"/>
		<path fill="#B8A5E4" d="M21.498,26.734c0.447-0.299,1.723-1.942,1.723-3.734c0-3.5-4.201-4.634-4.201-4.634L17.945,23.5
			l0.763,0.75l0.735,6.382c0.121,0.906,1.156,1.526,2.224,1.334c1.005-0.181,1.64-1.011,1.41-1.847L21.498,26.734z"/>
		<path fill="#C6B7E9" d="M16,11.688v13.594c0,0,3,0.405,3-3.625c0-4.031,1.13-5.281-0.182-6.75
			c-1.311-1.469-1.717-3.103-0.809-5.438C18.654,7.809,16,11.688,16,11.688z"/>
		<path fill="#A366AD" d="M16,25.999c0,0,3,0.178,3-3.565C19,18.689,16,18,16,18V25.999z"/>
		<path fill="#D4C9EF" d="M21.686,15.156L19.71,16.67C19.43,16.884,19.087,17,18.734,17h-0.816c-0.527,0-1.016-0.285-1.273-0.746
			L16,16.104V13h3.813c0.639,0,1.25,0.253,1.701,0.703l0.252,0.252C22.107,14.297,22.07,14.861,21.686,15.156z"/>
		<path fill="#D4C9EF" d="M21.846,0.854l-0.707-0.707c-0.195-0.195-0.513-0.195-0.707,0l-1.062,1.06L18,1.87l2.121,2.121l0.663-1.37
			l1.062-1.061C22.04,1.365,22.04,1.049,21.846,0.854z"/>
		<g>
			<path fill="#F1EDFA" d="M16,9.999V1c0,0-2.739,0.063-3.612,0.75c-0.86,0.677-1.37,3.176-1.385,6.118C11.002,7.913,11,7.955,11,8
				c0,0.113,0.02,0.232,0.049,0.352c0.87,0.577,1.851,1.01,2.959,1.084C14.632,9.478,15.295,9.995,16,9.999z"/>
			<path fill="#4B7E77" d="M15.991,12L15.991,12c-0.005,0-0.01-0.001-0.015-0.001C15.981,11.999,15.986,12,15.991,12z"/>
			<path fill="#E3DBF4" d="M20.997,7.876c-0.015-2.945-0.524-5.448-1.386-6.126C18.738,1.063,16,1,16,1v3.25v0.188V10
				c0.707,0,1.373-0.522,2-0.565c1.105-0.076,2.085-0.515,2.956-1.099C20.982,8.221,21,8.108,21,8
				C21,7.958,20.997,7.918,20.997,7.876z"/>
			<path fill="#D4C9EF" d="M16,10v0.781V12c1.861,0,4.589-2.108,4.956-3.664C20.085,8.92,19.105,9.359,18,9.435
				C17.373,9.478,16.707,10,16,10z"/>
			<polygon fill="#56C7CD" points="16,10 15.991,9.999 15.991,10.781 15.991,12 16,12 16,10.781 			"/>
			<path fill="#E3DBF4" d="M16,9.999c-0.705-0.004-1.368-0.52-1.991-0.562c-1.109-0.074-2.09-0.507-2.96-1.084
				c0.381,1.551,3.08,3.636,4.936,3.647C15.99,11.999,16,12,16,12v-1.219V9.999z"/>
		</g>
		<g>
			<path fill="#F7F7F7" d="M18.275,7.261l1.117-2.178c0.056-0.107,0.205-0.112,0.267-0.009c0.212,0.363,0.539,1.138,0.182,2.067
				c-0.017,0.044-0.054,0.079-0.099,0.093l-1.166,0.379C18.363,7.682,18.175,7.459,18.275,7.261z"/>
			<path fill="#2B3332" d="M19.075,5.704c0.182,0.323,0.422,0.922,0.266,1.66l-0.765,0.249c-0.213,0.069-0.402-0.153-0.301-0.352
				L19.075,5.704z"/>
		</g>
		<g>
			<path fill="#FFFFFF" d="M13.723,7.261l-1.117-2.178c-0.055-0.107-0.205-0.112-0.266-0.009c-0.212,0.363-0.539,1.138-0.182,2.067
				c0.017,0.044,0.054,0.079,0.099,0.093l1.166,0.379C13.636,7.682,13.825,7.459,13.723,7.261z"/>
			<path fill="#373F3F" d="M12.925,5.704c-0.182,0.323-0.422,0.922-0.266,1.66l0.765,0.249c0.212,0.069,0.402-0.153,0.3-0.352
				L12.925,5.704z"/>
		</g>
	</g>
</g>
<g id="labels">
</g>
<path fill="#D6D7D8" d="M15.938,3.625c0,0-6.25-5.188-7.063-4.188s2.174,8.916,2.174,8.916l3.201,1.084L16,9.999L15.938,3.625z"/>
<path fill="#CBCCCE" d="M15.938,3.563c0,0,6.688-4.688,7.063-4.188s-2.174,8.916-2.174,8.916l-3.201,1.084l-1.75,0.562L15.938,3.563
	z"/>
<path fill="#D6D7D8" d="M9.625,7.813c3,4.5,6.36,4.188,6.36,4.188l-0.047-3.063C15.938,8.938,6.625,3.313,9.625,7.813z"/>
<path fill="#CBCCCE" d="M22.265,7.813c-3,4.5-6.36,4.188-6.36,4.188l0.047-3.063C15.952,8.938,25.265,3.313,22.265,7.813z"/>
<path fill="#999A9A" d="M14.813,8.656l-0.375,3.281c0,0,1,0.5,1.563,0.469s1.563-0.469,1.563-0.469l-0.438-3.375L14.813,8.656z"/>
<path fill="#231F20" d="M9.938,5c-0.531-1.438,0.344,1.25,0.344,1.25s4.125,2.938,5.563,2.844s5.594-2.906,5.594-2.906
	S22,3.719,21.719,4.969S10.469,6.438,9.938,5z"/>
<path fill="#CBCCCE" d="M15.938,6.813c0,0-0.875,0.438-1.375-0.938s0.625-6.313,0.625-6.313S16-2.625,16-1.063
	S15.938,6.813,15.938,6.813z"/>
<path fill="#D6D7D8" d="M15.81,6.844c0,0,0.875,0.438,1.375-0.938S16.56-0.406,16.56-0.406s-0.813-2.188-0.813-0.625
	S15.81,6.844,15.81,6.844z"/>
<line fill="none" stroke="#231F20" stroke-width="0.5" x1="15.25" y1="5.969" x2="16.469" y2="5.969"/>
<path fill="#D6D7D8" d="M16.031,12.75c0,0-3.063-0.438-4.75-0.313s-2.031,1.281-2.094,2.281s2.813,2.688,3.188,2.875
	s3.656-0.094,3.656-0.094V12.75z"/>
<path fill="#CBCCCE" d="M15.938,12.75c0,0,3.063-0.438,4.75-0.313s2.031,1.281,2.094,2.281s-2.813,2.688-3.188,2.875
	S15.938,17.5,15.938,17.5V12.75z"/>
<line fill="none" stroke="#231F20" stroke-width="0.5" x1="16" y1="12.719" x2="15.938" y2="17.563"/>
<path fill="#231F20" d="M17.469,17.281c0,0.155-0.126,0.281-0.281,0.281h-2.375c-0.155,0-0.281-0.126-0.281-0.281l0,0
	c0-0.155,0.126-0.281,0.281-0.281h2.375C17.343,17,17.469,17.126,17.469,17.281L17.469,17.281z"/>
<g>
	<path fill="#D6D7D8" d="M9.469,12.781c1.844,0.125,2.156,3.906,1.625,4.469s-2.281,1.281-2.281,1.281l-1.5-2.563
		C7.313,15.969,7.625,12.656,9.469,12.781z"/>
	<path fill="#CBCCCE" d="M8.813,18.531c0,0-2,1.969-2.469,0.875s0.969-3.438,0.969-3.438L8.813,18.531z"/>
	<path fill="#D6D7D8" d="M5.938,17.781c1.875,1.281,1.656,4.094,1.656,4.094S4.75,25.781,3.969,25.5S4.063,16.5,5.938,17.781z"/>
	<path fill="#231F20" d="M5.438,18.672c0,0.13-0.105,0.234-0.234,0.234l0,0c-0.129,0-0.234-0.104-0.234-0.234v-0.813
		c0-0.13,0.105-0.234,0.234-0.234l0,0c0.129,0,0.234,0.104,0.234,0.234V18.672z"/>
	<path fill="#A853A0" d="M6.313,17.938C6.833,18,8.406,21.344,7.594,21.875s-1.906,1.969-2.5,0.25S5.792,17.875,6.313,17.938z"/>
	<line fill="none" stroke="#231F20" stroke-width="0.25" x1="10.417" y1="13.875" x2="8.208" y2="16.958"/>
	<line fill="none" stroke="#231F20" stroke-width="0.25" x1="6.792" y1="18.458" x2="8.25" y2="16.875"/>
</g>
<path fill="#CBCCCE" d="M23.083,13.115c-1.844,0.125-2.156,3.907-1.625,4.469s2.281,1.281,2.281,1.281l1.5-2.563
	C25.239,16.302,24.927,12.99,23.083,13.115z"/>
<path fill="#D6D7D8" d="M23.739,18.865c0,0,2,1.969,2.469,0.875s-0.969-3.438-0.969-3.438L23.739,18.865z"/>
<path fill="#D6D7D8" d="M26.614,18.115c-1.875,1.281-1.656,4.094-1.656,4.094s2.844,3.906,3.625,3.625S28.489,16.834,26.614,18.115z
	"/>
<path fill="#231F20" d="M27.114,19.006c0,0.129,0.104,0.234,0.234,0.234l0,0c0.129,0,0.234-0.105,0.234-0.234v-0.813
	c0-0.131-0.105-0.234-0.234-0.234l0,0c-0.13,0-0.234,0.104-0.234,0.234V19.006z"/>
<path fill="#A853A0" d="M26.239,18.271c-0.521,0.063-2.094,3.406-1.281,3.938s1.906,1.969,2.5,0.25S26.761,18.209,26.239,18.271z"/>
<line fill="none" stroke="#231F20" stroke-width="0.25" x1="22.135" y1="14.208" x2="24.343" y2="17.291"/>
<line fill="none" stroke="#231F20" stroke-width="0.25" x1="25.76" y1="18.791" x2="24.302" y2="17.209"/>
<path fill="#D6D7D8" d="M16,18c0,0-2.417-0.083-3.417,0.042s-0.5,0.75-0.5,0.75s1.083,10.292,3.917,9.75V18z"/>
<path fill="#CBCCCE" d="M15.959,18c0,0,2.416-0.083,3.416,0.042s0.5,0.75,0.5,0.75s-1.082,10.292-3.916,9.75V18z"/>
<ellipse fill="#A853A0" cx="15.979" cy="20.646" rx="1.854" ry="2.146"/>
<path fill="#231F20" d="M12.667,19.063c0,0.287-0.233,0.521-0.521,0.521l0,0c-0.288,0-0.521-0.233-0.521-0.521v-0.625
	c0-0.287,0.233-0.521,0.521-0.521l0,0c0.287,0,0.521,0.233,0.521,0.521V19.063z"/>
<path fill="#231F20" d="M20.583,19.063c0,0.287-0.233,0.521-0.521,0.521l0,0c-0.288,0-0.521-0.233-0.521-0.521v-0.625
	c0-0.287,0.232-0.521,0.521-0.521l0,0c0.287,0,0.521,0.233,0.521,0.521V19.063z"/>
<path fill="#D6D7D8" d="M9.583,28.625c0,0,1.292,0.625,2.292,0.125s1.333-3.708,1.333-3.708s-1.957,0.885-2.708,1.692
	S9.583,28.625,9.583,28.625z"/>
<path fill="#CBCCCE" d="M22.417,28.626c0,0-1.291,0.625-2.291,0.125s-1.334-3.708-1.334-3.708s1.957,0.885,2.708,1.692
	S22.417,28.626,22.417,28.626z"/>
<path fill="#231F20" d="M11.625,28.666c0,0.185-0.149,0.334-0.333,0.334h-1.166c-0.184,0-0.333-0.149-0.333-0.334l0,0
	c0-0.184,0.149-0.333,0.333-0.333h1.166C11.476,28.333,11.625,28.482,11.625,28.666L11.625,28.666z"/>
<path fill="#231F20" d="M22.292,28.666c0,0.185-0.149,0.334-0.334,0.334h-1.166c-0.184,0-0.333-0.149-0.333-0.334l0,0
	c0-0.184,0.149-0.333,0.333-0.333h1.166C22.143,28.333,22.292,28.482,22.292,28.666L22.292,28.666z"/>
<g>
	<path fill="#F7F5F5" d="M11.563,2.281c-0.563-0.063,1.5,1.156,1.875,2.25C14.063,4,13.906,3.5,13.625,3.219
		C13.094,2.875,12.125,2.344,11.563,2.281z"/>
	<path fill="#F7F5F5" d="M20.148,2.344c0.563-0.063-1.5,1.156-1.875,2.25c-0.625-0.531-0.469-1.031-0.188-1.313
		C18.617,2.938,19.586,2.406,20.148,2.344z"/>
	<path fill="#F7F5F5" d="M12.042,14.835c-0.084,0.189,0.002,0.411,0.191,0.495l0,0c0.189,0.083,0.411-0.002,0.495-0.191l0.417-0.943
		c0.084-0.189-0.002-0.411-0.191-0.495l0,0c-0.189-0.083-0.411,0.002-0.495,0.191L12.042,14.835z"/>
	<path fill="#F7F5F5" d="M20.458,14.866c0.084,0.189-0.002,0.411-0.191,0.495l0,0c-0.189,0.083-0.411-0.002-0.495-0.191
		l-0.417-0.943c-0.084-0.189,0.002-0.411,0.19-0.495l0,0c0.189-0.083,0.412,0.002,0.495,0.191L20.458,14.866z"/>
	<path fill="#F7F5F5" d="M14.833,23.417c-0.625-0.334-1.042,1.041-1.042,1.041s1.083,3.166,1.542,2.875S14.583,24.75,14.833,23.417z
		"/>
	<path fill="#F7F5F5" d="M4.458,22.625c-0.333,0.188-0.718,1.469-0.417,1.75c0.521-0.5,0.864,0.094,0.833-0.5
		S4.656,23.594,4.458,22.625z"/>
	<path fill="#F7F5F5" d="M27.975,22.938c0.334,0.188,0.719,1.469,0.417,1.75c-0.521-0.5-0.864,0.094-0.833-0.5
		S27.777,23.906,27.975,22.938z"/>
</g>
</svg>
