<?xml version="1.0" encoding="utf-8"?>
<!-- Generator: Adobe Illustrator 13.0.0, SVG Export Plug-In . SVG Version: 6.00 Build 14948)  -->
<!DOCTYPE svg PUBLIC "-//W3C//DTD SVG 1.1//EN" "http://www.w3.org/Graphics/SVG/1.1/DTD/svg11.dtd">
<svg version="1.1" id="Layer_1" xmlns="http://www.w3.org/2000/svg" xmlns:xlink="http://www.w3.org/1999/xlink" x="0px" y="0px"
	 width="32px" height="32px" viewBox="0 0 32 32" enable-background="new 0 0 32 32" xml:space="preserve">
<g id="labels">
</g>
<ellipse transform="matrix(-0.3826 -0.9239 0.9239 -0.3826 -12.2741 52.4293)" fill="#FFD96C" cx="11.382" cy="30.316" rx="1.5" ry="2.5"/>
<ellipse transform="matrix(-0.9238 -0.3828 0.3828 -0.9238 28.0641 66.2171)" fill="#FFD04D" cx="20.62" cy="30.316" rx="2.5" ry="1.5"/>
<path fill="#2B3332" d="M18,28l6.746-3.855c0.156-0.09,0.35-0.088,0.505,0.006l4.2,2.52c0.279,0.167,0.326,0.553,0.096,0.782
	l-2.14,2.14c-0.216,0.215-0.571,0.19-0.755-0.054l-2.393-3.19c-0.15-0.199-0.423-0.259-0.642-0.139L19.283,28.6
	c-0.174,0.096-0.387,0.08-0.545-0.039L18,28z"/>
<path fill="#FFD04D" d="M18.325,19.355c0,0,3.847,0.77,6.142,2.309c0.524,0.352,0.676,1.056,0.395,1.62l-0.004,0.008
	c-0.295,0.588-0.986,0.854-1.604,0.628c-3.732-1.367-5.929-0.564-5.929-0.564L18.325,19.355z"/>
<path fill="#FFD96C" d="M13.675,19.355c0,0-3.847,0.77-6.142,2.309c-0.524,0.352-0.676,1.056-0.394,1.62l0.004,0.008
	c0.294,0.588,0.986,0.854,1.603,0.628c3.733-1.367,5.929-0.564,5.929-0.564L13.675,19.355z"/>
<path fill="#FFE28A" d="M16,18c-3.314,0-6,4.686-6,8s2.686,4,6,4V18z"/>
<path fill="#FFD96C" d="M22,26c0-3.314-2.686-8-6-8v12C19.314,30,22,29.314,22,26z"/>
<path fill="#373F3F" d="M16,19h-2.616c-0.708,0.55-1.336,1.285-1.855,2.118l0.277,1.106c0.09,0.357,0.523,0.498,0.806,0.262
	l0.982-0.824c0.22-0.186,0.55-0.146,0.722,0.084l1.283,1.718c0.1,0.134,0.25,0.201,0.401,0.201V19z"/>
<path fill="#2B3332" d="M16.401,23.464l1.283-1.718c0.172-0.23,0.502-0.268,0.723-0.084l0.982,0.824
	c0.282,0.236,0.717,0.097,0.805-0.262l0.277-1.106c-0.519-0.832-1.146-1.568-1.854-2.118H16v4.664
	C16.15,23.664,16.301,23.598,16.401,23.464z"/>
<path fill="#FFEAA7" d="M12.372,7.767l0.559-3.357c0.04-0.238-0.096-0.47-0.322-0.552L3.007,0.366
	C2.608,0.221,2.221,0.608,2.366,1.007l3.492,9.602c0.082,0.226,0.314,0.362,0.552,0.322l2.679-0.447C8.401,11.519,8,12.717,8,14
	c0,3.866,3.582,7,8,7V7C14.693,7,13.462,7.28,12.372,7.767z"/>
<path fill="#FFE28A" d="M28.993,0.366l-9.603,3.492c-0.226,0.082-0.361,0.314-0.322,0.552l0.56,3.357C18.538,7.28,17.307,7,16,7v14
	c4.418,0,8-3.134,8-7c0-1.283-0.4-2.481-1.089-3.515l2.679,0.447c0.238,0.04,0.471-0.096,0.553-0.322l3.491-9.602
	C29.779,0.608,29.393,0.221,28.993,0.366z"/>
<circle fill="#96643B" cx="11.5" cy="13.5" r="1.5"/>
<path fill="#373F3F" d="M11.5,12c-0.286,0-0.55,0.084-0.777,0.223C10.584,12.45,10.5,12.714,10.5,13c0,0.828,0.672,1.5,1.5,1.5
	c0.286,0,0.55-0.084,0.777-0.223C12.916,14.05,13,13.786,13,13.5C13,12.672,12.328,12,11.5,12z"/>
<circle fill="#FAF9F8" cx="12" cy="13" r="0.5"/>
<circle fill="#8D5B36" cx="20.5" cy="13.5" r="1.5"/>
<path fill="#2B3332" d="M20.5,12c0.286,0,0.55,0.084,0.777,0.223C21.416,12.45,21.5,12.714,21.5,13c0,0.828-0.672,1.5-1.5,1.5
	c-0.286,0-0.55-0.084-0.777-0.223C19.084,14.05,19,13.786,19,13.5C19,12.672,19.672,12,20.5,12z"/>
<circle fill="#FAF9F8" cx="20" cy="13" r="0.5"/>
<path fill="#373F3F" d="M7,4.75V4.379c0-0.179,0.184-0.3,0.348-0.23L12.6,6.4l0.332-1.99c0.04-0.238-0.096-0.47-0.322-0.552
	L3.007,0.366C2.608,0.221,2.221,0.608,2.366,1.007l3.492,9.602c0.082,0.226,0.314,0.362,0.552,0.322L8.4,10.6L6.149,5.348
	C6.079,5.184,6.2,5,6.379,5H6.75C6.888,5,7,4.888,7,4.75z"/>
<path fill="#2B3332" d="M25,4.75V4.379c0-0.179-0.184-0.3-0.348-0.23L19.4,6.4l-0.332-1.99c-0.041-0.238,0.096-0.47,0.322-0.552
	l9.602-3.492c0.398-0.145,0.785,0.242,0.641,0.641l-3.492,9.602c-0.082,0.226-0.313,0.362-0.552,0.322L23.6,10.6l2.252-5.251
	C25.921,5.184,25.8,5,25.621,5H25.25C25.111,5,25,4.888,25,4.75z"/>
<path fill="#FF8D6E" d="M8.21,15.572c0.394,1.498,1.333,2.813,2.631,3.772c0.138-0.055,0.267-0.126,0.373-0.231
	c0.613-0.613,0.364-1.854-0.555-2.773C9.88,15.562,8.873,15.271,8.21,15.572z"/>
<path fill="#FF805D" d="M23.8,15.539c-0.661-0.238-1.614,0.056-2.358,0.801c-0.92,0.919-1.168,2.16-0.555,2.773
	c0.088,0.088,0.192,0.154,0.303,0.207C22.48,18.355,23.414,17.039,23.8,15.539z"/>
<path fill="#373F3F" d="M16,14.5h-0.25c-0.138,0-0.25,0.112-0.25,0.25S15.612,15,15.75,15H16V14.5z"/>
<path fill="#373F3F" d="M16,16.75c-0.867,0-1.301-0.405-1.324-0.428c-0.098-0.097-0.255-0.096-0.353,0.001
	c-0.098,0.098-0.098,0.256,0,0.354C14.347,16.7,14.909,17.25,16,17.25V16.75z"/>
<path fill="#2B3332" d="M17.677,16.677c0.097-0.097,0.097-0.253,0-0.352c-0.095-0.097-0.253-0.098-0.353-0.003
	C17.307,16.339,16.873,16.75,16,16.75v0.5C17.091,17.25,17.652,16.7,17.677,16.677z"/>
<path fill="#2B3332" d="M16.25,14.5H16V15h0.25c0.138,0,0.25-0.112,0.25-0.25S16.388,14.5,16.25,14.5z"/>
<g>
	<path fill="#ED2024" d="M3.164,9.302c-2.639-0.175-1.842,0.743,0.597,1.486c2.44,0.743,21.556,0.874,23.795,0.349
		c2.241-0.524,3.635-1.747,0.399-1.66C24.72,9.564,5.803,9.477,3.164,9.302z"/>
	<g>
		<ellipse fill="#F7F5F5" cx="5.23" cy="10.241" rx="0.522" ry="0.391"/>
		<ellipse fill="#F7F5F5" cx="6.972" cy="10.329" rx="0.523" ry="0.391"/>
		<ellipse fill="#F7F5F5" cx="8.839" cy="10.395" rx="0.522" ry="0.391"/>
		<ellipse fill="#F7F5F5" cx="10.656" cy="10.46" rx="0.523" ry="0.391"/>
		<ellipse fill="#F7F5F5" cx="12.548" cy="10.504" rx="0.523" ry="0.39"/>
		<ellipse fill="#F7F5F5" cx="14.415" cy="10.57" rx="0.523" ry="0.391"/>
		<ellipse fill="#F7F5F5" cx="16.232" cy="10.635" rx="0.523" ry="0.391"/>
		<ellipse fill="#F7F5F5" cx="17.925" cy="10.635" rx="0.522" ry="0.391"/>
		<ellipse fill="#F7F5F5" cx="19.668" cy="10.678" rx="0.522" ry="0.39"/>
		<ellipse fill="#F7F5F5" cx="21.31" cy="10.678" rx="0.522" ry="0.39"/>
		<ellipse fill="#F7F5F5" cx="23.053" cy="10.547" rx="0.522" ry="0.39"/>
		<ellipse fill="#F7F5F5" cx="24.794" cy="10.591" rx="0.523" ry="0.39"/>
		<ellipse fill="#F7F5F5" cx="26.438" cy="10.591" rx="0.521" ry="0.39"/>
		<ellipse fill="#F7F5F5" cx="3.538" cy="10.067" rx="0.522" ry="0.39"/>
		<ellipse fill="#F7F5F5" cx="28.129" cy="10.241" rx="0.523" ry="0.391"/>
	</g>
	<g>
		<path fill="#FDD59B" d="M15.46,3.534c-2.688,0.175-2.837,0.918-2.837,0.918l-2.39,5.156h11.001l-2.04-5.2
			C19.194,4.408,18.148,3.359,15.46,3.534z"/>
		<path fill="#D9B785" d="M15.875,3.534c-0.199,6.205-0.1,6.088-0.1,6.088l5.459-0.014l-2.041-5.201
			C19.194,4.408,18.43,3.476,15.875,3.534z"/>
	</g>
	<path fill="#7AC143" d="M1.571,9.477c0,0,27.082,0.204,27.679,0.218c0.598,0.015,0.83,0.278,0.498,0.175
		C29.416,9.768,2.003,9.564,1.72,9.652C1.438,9.739,1.571,9.477,1.571,9.477z"/>
</g>
</svg>
