<?xml version="1.0" encoding="utf-8"?>
<!-- Generator: Adobe Illustrator 13.0.0, SVG Export Plug-In . SVG Version: 6.00 Build 14948)  -->
<!DOCTYPE svg PUBLIC "-//W3C//DTD SVG 1.1//EN" "http://www.w3.org/Graphics/SVG/1.1/DTD/svg11.dtd">
<svg version="1.1" id="Layer_1" xmlns="http://www.w3.org/2000/svg" xmlns:xlink="http://www.w3.org/1999/xlink" x="0px" y="0px"
	 width="32px" height="32px" viewBox="0 0 32 32" enable-background="new 0 0 32 32" xml:space="preserve">
<path fill="#EFB43F" d="M30.727,14.177l-1.299-3.893c-0.213-0.638-0.982-0.889-1.529-0.497l-5.037,3.597
	c0.014,0.138,0.031,0.274,0.035,0.414c0.086,2.248,0.156,4.442,0.049,6.437c-0.067,1.246,0.133,2.479,0.529,3.658l1.993-1.494
	c0.322-0.241,0.468-0.652,0.37-1.043L25,18l5.225-2.612C30.669,15.165,30.883,14.649,30.727,14.177z"/>
<path fill="#231F20" d="M23.542,24.5c0,0,2.499-1.291,2.833-2.041s-0.833-4.25-0.833-4.25l2.917-1.292l-1.5-1l0.291-1.958
	L25.125,13.5L25.25,11l-2.625,2.208l-0.208,9.417L23.542,24.5z"/>
<path fill="#F7BC48" d="M11,29l-1.794,1.794C9.074,30.926,9,31.105,9,31.292v0.003C9,31.684,9.316,32,9.705,32h2.59
	C12.684,32,13,31.684,13,31.295V29H11z"/>
<path fill="#FFC550" d="M9.054,20.234c-0.107-1.995-0.036-4.188,0.048-6.437c0.14-3.697,3.105-6.767,6.804-6.798
	C15.939,7,15.967,7.004,16,7.004V29c-2,0-3.624,1.257-5.118,0.846c-1.347-0.371-2.421-1.481-2.757-2.838
	c-0.22-0.887-0.139-1.734,0.157-2.471C8.834,23.164,9.134,21.712,9.054,20.234z"/>
<path fill="#FFCF6E" d="M8.873,6.978c-2.027-3.511-1.937-5.943-1.824-6.76C7.072,0.052,7.24-0.044,7.395,0.02
	c0.767,0.317,2.93,1.471,4.943,4.958c0.585,1.013,0.931,1.837,1.129,2.515c0.756-0.307,1.577-0.485,2.44-0.492
	C15.939,7,15.967,7.004,16,7.004V21c-3.006,0-5.621-1.66-6.988-4.111c0.017-1.01,0.052-2.042,0.091-3.091
	c0.061-1.629,0.672-3.135,1.652-4.314C10.201,8.967,9.569,8.183,8.873,6.978z"/>
<path fill="#373F3F" d="M7.963,5.169C6.894,2.741,6.957,0.884,7.049,0.218C7.072,0.052,7.24-0.044,7.395,0.02
	c0.614,0.254,2.17,1.045,3.749,3.159C9.848,3.407,8.709,4.148,7.963,5.169z"/>
<path fill="#EFB43F" d="M21,29l1.794,1.794C22.926,30.926,23,31.105,23,31.292v0.003C23,31.684,22.684,32,22.295,32h-2.59
	C19.316,32,19,31.684,19,31.295V29H21z"/>
<path fill="#F7BC48" d="M22.945,20.234c0.107-1.995,0.037-4.188-0.047-6.437C22.758,10.101,19.793,7.031,16.094,7
	C16.061,7,16.033,7.004,16,7.004V29c2,0,3.624,1.257,5.118,0.846c1.347-0.371,2.421-1.481,2.757-2.838
	c0.221-0.887,0.139-1.734-0.157-2.471C23.166,23.164,22.866,21.712,22.945,20.234z"/>
<g>
	<path fill="#ECCD50" d="M16.575,7.029C16.416,7.016,16.256,7.002,16.094,7c-0.016,0-0.031,0.001-0.046,0.002
		C16.225,7.003,16.4,7.019,16.575,7.029z"/>
</g>
<path fill="#FFC550" d="M23.127,6.978c2.027-3.511,1.938-5.943,1.824-6.76c-0.023-0.166-0.191-0.262-0.346-0.198
	c-0.768,0.317-2.931,1.471-4.943,4.958c-0.585,1.013-0.932,1.837-1.129,2.515C17.777,7.186,16.957,7.008,16.094,7
	C16.061,7,16.033,7.004,16,7.004V21c3.006,0,5.621-1.66,6.988-4.111c-0.018-1.01-0.053-2.042-0.092-3.091
	c-0.061-1.629-0.672-3.135-1.651-4.314C21.799,8.967,22.432,8.183,23.127,6.978z"/>
<path fill="#2B3332" d="M17,15.501c0-0.552-0.448-0.5-1-0.5v1C16.552,16.001,17,16.054,17,15.501z"/>
<path fill="#373F3F" d="M16,15.001c-0.552,0-1-0.052-1,0.5s0.448,0.5,1,0.5V15.001z"/>
<path fill="#FF8D6E" d="M11,16.467c0,0.828-0.172,1.5-1,1.5s-1.5-0.672-1.5-1.5c0-0.828,0.672-1.5,1.5-1.5S11,15.638,11,16.467z"/>
<path fill="#FF805D" d="M21,16.467c0,0.828,0.172,1.5,1,1.5s1.5-0.672,1.5-1.5c0-0.828-0.672-1.5-1.5-1.5S21,15.638,21,16.467z"/>
<circle fill="#96643B" cx="12.5" cy="13.5" r="1.5"/>
<path fill="#373F3F" d="M12.5,12c-0.286,0-0.55,0.084-0.777,0.223C11.584,12.45,11.5,12.714,11.5,13c0,0.828,0.672,1.5,1.5,1.5
	c0.286,0,0.55-0.084,0.777-0.223C13.916,14.05,14,13.786,14,13.5C14,12.672,13.328,12,12.5,12z"/>
<circle fill="#FAF9F8" cx="13" cy="13" r="0.5"/>
<circle fill="#8D5B36" cx="19.5" cy="13.5" r="1.5"/>
<path fill="#2B3332" d="M19.5,12c0.286,0,0.55,0.084,0.777,0.223C20.416,12.45,20.5,12.714,20.5,13c0,0.828-0.672,1.5-1.5,1.5
	c-0.286,0-0.55-0.084-0.777-0.223C18.084,14.05,18,13.786,18,13.5C18,12.672,18.672,12,19.5,12z"/>
<circle fill="#FAF9F8" cx="19" cy="13" r="0.5"/>
<path fill="#2B3332" d="M24.037,5.169c1.068-2.428,1.006-4.285,0.914-4.951c-0.023-0.166-0.191-0.262-0.346-0.198
	c-0.614,0.254-2.17,1.045-3.75,3.159C22.152,3.407,23.291,4.148,24.037,5.169z"/>
<g id="labels">
</g>
<path fill="#EFE2C8" d="M16,6.417C9.333,7,8.5,13.5,8.5,13.5V19c0,0-0.333,4.083-1,5.75s-2.917,4.917-2.917,4.917
	s0.93-1.393,6.298,0.179s5.285,2.738,5.202,0.321S16,21,16,21s-5.25-1.166-6-2.083s-1.333-1.584-0.333-5.333
	c4.917-8.917,6.417-2.5,6.417-2.5S16,11.083,16,6.417z"/>
<path fill="#EBD9B8" d="M16.021,6.433c6.666,0.583,7.5,7.083,7.5,7.083v5.5c0,0,0.334,4.083,1,5.75s2.916,4.917,2.916,4.917
	s-0.93-1.393-6.298,0.179s-5.285,2.738-5.202,0.321c0.084-2.417,0.084-9.167,0.084-9.167s5.25-1.166,6-2.083
	s1.334-1.584,0.334-5.333c-4.918-8.917-6.418-2.5-6.418-2.5S16.021,11.1,16.021,6.433z"/>
<path fill="#EBD9B8" d="M18.167,7.5C18.5,6.167,20.75,2.833,20.75,2.833l3.75,2c0,0-2.209,4.75-2.917,4.667S17.834,8.833,18.167,7.5
	z"/>
<path fill="#231F20" d="M20.75,2.833c0,0,2.958-3.792,4.125-3.083S24.5,4.833,24.5,4.833"/>
<path fill="#EBD9B8" d="M8.083,19.5"/>
<path fill="#FFCF6E" d="M8.289,19.785L8.289,19.785c0.666-0.666,1.763-0.605,2.351,0.13l2.014,2.517
	c0.503,0.629,0.453,1.535-0.117,2.104l0,0c-0.569,0.569-1.476,0.619-2.104,0.116l-1.961-1.568C7.44,22.259,7.354,20.72,8.289,19.785
	z"/>
<path fill="#FFCF6E" d="M23.711,19.785L23.711,19.785c-0.666-0.666-1.763-0.605-2.352,0.13l-2.014,2.517
	c-0.503,0.629-0.453,1.535,0.117,2.104l0,0c0.569,0.569,1.477,0.619,2.104,0.116l1.961-1.568
	C24.561,22.259,24.646,20.72,23.711,19.785z"/>
<path fill="#EFE2C8" d="M7.917,19.667C6.667,20.959,8,22.875,8,22.875l1.667,1.459l2.833-2.5l-1.75-2.084
	C10.75,19.75,9.167,18.375,7.917,19.667z"/>
<path fill="#EBD9B8" d="M24.091,19.625c1.25,1.292-0.083,3.208-0.083,3.208l-1.667,1.459l-2.833-2.5l1.75-2.084
	C21.258,19.708,22.841,18.333,24.091,19.625z"/>
<line fill="#231F20" x1="20.292" y1="7.917" x2="22.625" y2="3.833"/>
<ellipse fill="#231F20" cx="14.146" cy="23.688" rx="0.354" ry="0.771"/>
<ellipse fill="#231F20" cx="17.812" cy="23.688" rx="0.354" ry="0.771"/>
<path fill="none" stroke="#231F20" stroke-width="0.25" d="M14.625,7.125c-0.227,0-0.772-0.117-0.839,0.167
	c-0.083,0.354,0.494,0.434,0.699,0.401c0.173-0.571-0.49-0.587-0.895-0.563c-0.065,0.218-0.111,0.486,0.065,0.633
	c0.11,0.092,0.623,0.125,0.74,0.032c0.565-0.448-0.784-0.886-0.983-0.459c-0.25,0.534,0.858,1.068,1.229,0.802
	c0.131-0.094,0.238-0.463,0.191-0.628c-0.096-0.337-0.479-0.26-0.753-0.438c-0.299,0.305-0.289,0.728-0.23,1.132
	c0.295,0.053,0.68-0.109,0.761-0.448c0.1-0.421-0.307-0.468-0.652-0.506"/>
<path fill="none" stroke="#231F20" stroke-width="0.25" d="M17.469,7.167c0.227,0,0.772-0.117,0.839,0.167
	c0.083,0.354-0.493,0.434-0.699,0.401c-0.173-0.571,0.49-0.587,0.895-0.563c0.065,0.218,0.11,0.486-0.065,0.633
	c-0.109,0.092-0.623,0.125-0.739,0.032c-0.565-0.448,0.784-0.886,0.983-0.459c0.25,0.534-0.858,1.068-1.229,0.802
	c-0.131-0.094-0.238-0.463-0.191-0.628c0.096-0.337,0.479-0.26,0.753-0.438c0.299,0.305,0.289,0.728,0.23,1.132
	c-0.295,0.053-0.68-0.109-0.761-0.448c-0.101-0.421,0.307-0.468,0.651-0.506"/>
<path fill="none" stroke="#231F20" stroke-width="0.25" d="M12.958,8.333c0.07,0.25,0.921,0.264,1.172,0.301
	c0.414,0.061,1.27,0.072,1.465-0.378c0.484-0.108,0.876,0.518,1.415,0.452c0.6-0.074,0.731-0.277,1.299,0.111
	c0.252-0.173,0.64-0.122,0.899-0.194"/>
<path fill="none" stroke="#FBAD18" stroke-width="0.25" d="M12.5,8c0,0.288,0.086,0.781-0.073,0.999
	c-0.1-0.247-0.169-0.482-0.185-0.746c-0.169,0.158-0.282,0.598-0.284,0.818c0.021-0.198-0.003-0.399-0.089-0.573
	c0.384-0.13,0.667,0.068,1.037,0.11c-0.234-0.1-0.458-0.285-0.532-0.503c0.029,0.351-0.076,0.782-0.288,1.051
	c0.17-0.235,0.074-0.639-0.003-0.906"/>
<path fill="none" stroke="#FBAD18" stroke-width="0.25" d="M19.608,8.125c0,0.288-0.086,0.781,0.072,0.999
	c0.1-0.247,0.17-0.482,0.186-0.746c0.168,0.158,0.281,0.598,0.283,0.818c-0.021-0.198,0.004-0.399,0.09-0.573
	c-0.384-0.13-0.667,0.068-1.037,0.11c0.234-0.1,0.458-0.285,0.532-0.503c-0.028,0.351,0.075,0.782,0.288,1.051
	c-0.17-0.235-0.074-0.639,0.002-0.906"/>
<line fill="none" stroke="#FBAD18" stroke-width="0.25" x1="20.292" y1="6.792" x2="21.125" y2="7.167"/>
<line fill="none" stroke="#FBAD18" stroke-width="0.25" x1="20.834" y1="5.75" x2="21.667" y2="6.125"/>
<line fill="none" stroke="#FBAD18" stroke-width="0.25" x1="21.417" y1="4.584" x2="22.25" y2="4.959"/>
<line fill="none" stroke="#FBAD18" stroke-width="0.25" x1="15.25" y1="23.5" x2="15.25" y2="24.75"/>
<line fill="none" stroke="#FBAD18" stroke-width="0.25" x1="16.792" y1="23.542" x2="16.792" y2="24.792"/>
<g>
	<path fill="#FF8D6E" d="M13.75,20.542c-0.375,0.125-0.208,1.291,0,1.458c1.125,0,2.271-0.984,2.271-0.984
		S14.125,20.417,13.75,20.542z"/>
	<path fill="#FF8D6E" d="M18.297,20.542c0.375,0.125,0.208,1.291,0,1.458c-1.125,0-2.271-0.984-2.271-0.984
		S17.922,20.417,18.297,20.542z"/>
	<path fill="#FF8D6E" d="M15.083,21.542c0,0-0.313,1.125-0.208,1.25s0.708,0.083,0.708,0.083l0.208-1.708L15.083,21.542z"/>
	<path fill="#FF8D6E" d="M17.019,21.563c0,0,0.313,1.125,0.209,1.25s-0.709,0.083-0.709,0.083l-0.208-1.708L17.019,21.563z"/>
	<ellipse fill="#FF8D6E" cx="16.031" cy="21.219" rx="0.406" ry="0.365"/>
</g>
</svg>
