<?xml version="1.0" encoding="utf-8"?>
<!-- Generator: Adobe Illustrator 13.0.0, SVG Export Plug-In . SVG Version: 6.00 Build 14948)  -->
<!DOCTYPE svg PUBLIC "-//W3C//DTD SVG 1.1//EN" "http://www.w3.org/Graphics/SVG/1.1/DTD/svg11.dtd">
<svg version="1.1" id="Layer_1" xmlns="http://www.w3.org/2000/svg" xmlns:xlink="http://www.w3.org/1999/xlink" x="0px" y="0px"
	 width="32px" height="32px" viewBox="0 0 32 32" enable-background="new 0 0 32 32" xml:space="preserve">
<path fill="#F7C845" d="M30.727,14.177l-1.299-3.893c-0.213-0.638-0.982-0.889-1.529-0.497l-5.037,3.597
	c0.015,0.138,0.031,0.274,0.035,0.414c0.086,2.248,0.156,4.442,0.049,6.437c-0.066,1.246,0.134,2.479,0.529,3.658l1.993-1.494
	c0.322-0.24,0.468-0.651,0.37-1.043L25,18l5.225-2.612C30.669,15.165,30.883,14.649,30.727,14.177z"/>
<path fill="#FFD04D" d="M11,29l-1.794,1.794C9.074,30.926,9,31.105,9,31.292v0.003C9,31.684,9.316,32,9.705,32h2.59
	C12.684,32,13,31.684,13,31.295V29H11z"/>
<path fill="#FFD96C" d="M9.054,20.234c-0.107-1.995-0.036-4.188,0.048-6.438c0.14-3.697,3.105-6.767,6.804-6.798
	C15.939,7,15.967,7.004,16,7.004V29c-2,0-3.624,1.257-5.118,0.846c-1.347-0.371-2.421-1.48-2.757-2.838
	c-0.22-0.887-0.139-1.734,0.157-2.471C8.834,23.164,9.134,21.712,9.054,20.234z"/>
<path fill="#FFE28A" d="M8.289,19.785L8.289,19.785c0.666-0.666,1.763-0.605,2.351,0.13l2.014,2.517
	c0.503,0.629,0.453,1.535-0.117,2.104l0,0c-0.569,0.569-1.476,0.619-2.104,0.116l-1.961-1.568C7.44,22.259,7.354,20.72,8.289,19.785
	z"/>
<path fill="#FFE28A" d="M8.873,6.978c-2.027-3.511-1.937-5.943-1.824-6.76C7.072,0.052,7.24-0.044,7.395,0.02
	c0.767,0.317,2.93,1.471,4.943,4.958c0.585,1.013,0.931,1.837,1.129,2.515c0.756-0.307,1.577-0.485,2.44-0.492
	C15.939,7,15.967,7.004,16,7.004V21c-3.006,0-5.621-1.66-6.988-4.111c0.017-1.01,0.052-2.042,0.091-3.091
	c0.061-1.629,0.672-3.135,1.652-4.314C10.201,8.967,9.569,8.183,8.873,6.978z"/>
<path fill="#373F3F" d="M7.963,5.169C6.894,2.741,6.957,0.884,7.049,0.218C7.072,0.052,7.24-0.044,7.395,0.02
	c0.614,0.254,2.17,1.045,3.749,3.159C9.848,3.407,8.709,4.148,7.963,5.169z"/>
<path fill="#F7C845" d="M21,29l1.794,1.794C22.926,30.926,23,31.105,23,31.292v0.003C23,31.684,22.684,32,22.295,32h-2.59
	C19.316,32,19,31.684,19,31.295V29H21z"/>
<path fill="#FFD04D" d="M22.945,20.234c0.106-1.995,0.037-4.188-0.047-6.438C22.758,10.101,19.793,7.031,16.094,7
	C16.061,7,16.033,7.004,16,7.004V29c2,0,3.624,1.257,5.118,0.846c1.347-0.371,2.421-1.48,2.757-2.838
	c0.221-0.887,0.139-1.734-0.157-2.471C23.166,23.164,22.866,21.712,22.945,20.234z"/>
<g>
	<path fill="#ECCD50" d="M16.575,7.029C16.416,7.016,16.256,7.002,16.094,7c-0.016,0-0.031,0.001-0.046,0.002
		C16.225,7.003,16.4,7.019,16.575,7.029z"/>
</g>
<path fill="#FFD96C" d="M23.127,6.978c2.027-3.511,1.938-5.943,1.824-6.76c-0.023-0.166-0.191-0.262-0.346-0.198
	c-0.769,0.317-2.932,1.471-4.943,4.958c-0.585,1.013-0.932,1.837-1.129,2.515C17.777,7.186,16.957,7.008,16.094,7
	C16.061,7,16.033,7.004,16,7.004V21c3.006,0,5.621-1.66,6.988-4.111c-0.018-1.01-0.053-2.042-0.092-3.091
	c-0.062-1.629-0.672-3.135-1.651-4.314C21.799,8.967,22.432,8.183,23.127,6.978z"/>
<path fill="#2B3332" d="M17,15.501c0-0.552-0.448-0.5-1-0.5v1C16.552,16.001,17,16.054,17,15.501z"/>
<path fill="#373F3F" d="M16,15.001c-0.552,0-1-0.052-1,0.5s0.448,0.5,1,0.5V15.001z"/>
<path fill="#FF8D6E" d="M11,16.467c0,0.828-0.172,1.5-1,1.5s-1.5-0.672-1.5-1.5c0-0.828,0.672-1.5,1.5-1.5S11,15.638,11,16.467z"/>
<path fill="#FF805D" d="M21,16.467c0,0.828,0.172,1.5,1,1.5s1.5-0.672,1.5-1.5c0-0.828-0.672-1.5-1.5-1.5S21,15.638,21,16.467z"/>
<path fill="#FFD96C" d="M23.711,19.785L23.711,19.785c-0.666-0.666-1.763-0.605-2.352,0.13l-2.014,2.517
	c-0.504,0.629-0.453,1.535,0.116,2.104l0,0c0.569,0.569,1.478,0.619,2.104,0.116l1.961-1.568
	C24.561,22.259,24.646,20.72,23.711,19.785z"/>
<circle fill="#96643B" cx="12.5" cy="13.5" r="1.5"/>
<path fill="#373F3F" d="M12.5,12c-0.286,0-0.55,0.084-0.777,0.223C11.584,12.45,11.5,12.714,11.5,13c0,0.828,0.672,1.5,1.5,1.5
	c0.286,0,0.55-0.084,0.777-0.223C13.916,14.05,14,13.786,14,13.5C14,12.672,13.328,12,12.5,12z"/>
<circle fill="#FAF9F8" cx="13" cy="13" r="0.5"/>
<circle fill="#8D5B36" cx="19.5" cy="13.5" r="1.5"/>
<path fill="#2B3332" d="M19.5,12c0.286,0,0.55,0.084,0.777,0.223C20.416,12.45,20.5,12.714,20.5,13c0,0.828-0.672,1.5-1.5,1.5
	c-0.286,0-0.55-0.084-0.777-0.223C18.084,14.05,18,13.786,18,13.5C18,12.672,18.672,12,19.5,12z"/>
<circle fill="#FAF9F8" cx="19" cy="13" r="0.5"/>
<path fill="#2B3332" d="M24.037,5.169c1.068-2.428,1.006-4.285,0.914-4.951c-0.023-0.166-0.191-0.262-0.346-0.198
	c-0.614,0.254-2.17,1.045-3.75,3.159C22.152,3.407,23.291,4.148,24.037,5.169z"/>
<g id="labels">
</g>
<g>
	<polygon fill="#8BD1BD" points="8.746,2.996 12.611,8.766 15.059,7.122 	"/>
	<polygon fill="#7ACAB3" points="8.746,2.996 10.434,9.829 12.611,8.766 	"/>
</g>
<polygon fill="#EDEE89" points="9.949,3.787 9.63,4.285 9.854,4.614 10.233,3.956 "/>
<polygon fill="#E7E861" points="9.63,4.285 9.204,4.889 9.322,5.303 9.854,4.614 "/>
<polygon fill="#EDEE89" points="11.157,4.571 10.517,5.631 10.837,6.14 11.583,4.836 "/>
<polygon fill="#E7E861" points="10.837,6.14 10.517,5.631 9.582,6.384 9.736,6.998 "/>
<polygon fill="#E7E861" points="9.997,8.122 11.5,7.125 11.843,7.645 10.15,8.705 "/>
<polygon fill="#EDEE89" points="11.5,7.125 11.843,7.645 13.43,6.055 12.873,5.684 "/>
</svg>
