<?xml version="1.0" encoding="utf-8"?>
<!-- Generator: Adobe Illustrator 13.0.0, SVG Export Plug-In . SVG Version: 6.00 Build 14948)  -->
<!DOCTYPE svg PUBLIC "-//W3C//DTD SVG 1.1//EN" "http://www.w3.org/Graphics/SVG/1.1/DTD/svg11.dtd">
<svg version="1.1" id="Layer_1" xmlns="http://www.w3.org/2000/svg" xmlns:xlink="http://www.w3.org/1999/xlink" x="0px" y="0px"
	 width="32px" height="32px" viewBox="0 0 32 32" enable-background="new 0 0 32 32" xml:space="preserve">
<path fill="#FFEAA7" d="M23.543,21.967c0-4.418-3.58-8-8-8v16C19.963,29.967,23.543,26.387,23.543,21.967z"/>
<path fill="#FEF1C6" d="M15.543,13.967c-4.418,0-8,3.582-8,8c0,4.42,3.582,8,8,8V13.967z"/>
<g>
	<path fill="#FFD96C" d="M9.558,17.967h5.985v-3.2C13.047,14.767,10.849,16.038,9.558,17.967z"/>
	<path fill="#FFD04D" d="M21.529,17.967c-1.293-1.929-3.49-3.2-5.986-3.2v3.2H21.529z"/>
	<path fill="#F7C845" d="M15.543,17.967v4h7.201c0-1.48-0.449-2.855-1.215-4H15.543z"/>
	<path fill="#F0C13E" d="M15.543,25.967h5.986c0.766-1.143,1.215-2.518,1.215-4h-7.201V25.967z"/>
	<path fill="#E8BA36" d="M15.543,25.967v3.201c2.496,0,4.695-1.271,5.986-3.201H15.543z"/>
	<path fill="#FFD04D" d="M15.543,17.967H9.558c-0.767,1.145-1.215,2.52-1.215,4h7.2V17.967z"/>
	<path fill="#F7C845" d="M15.543,25.967v-4h-7.2c0,1.482,0.448,2.857,1.215,4H15.543z"/>
	<path fill="#F0C13E" d="M9.558,25.967c1.292,1.93,3.489,3.201,5.985,3.201v-3.201H9.558z"/>
	<path fill="#51BAC5" d="M26.5,17.911c-0.457-0.792-1.432-1.119-2.273-0.764l-2.551,1.075c0.668,1.094,1.068,2.369,1.068,3.744
		c0,0.281-0.031,0.555-0.063,0.826l3.344-2.531C26.754,19.711,26.957,18.703,26.5,17.911z"/>
</g>
<path fill="#51BAC5" d="M22.744,13.282c0-4.041-3.162-7.314-7.201-7.314v12.8C19.582,18.768,22.744,17.32,22.744,13.282z"/>
<path fill="#56C7CD" d="M15.543,5.967c-4.039,0-7.2,3.274-7.2,7.314c0,4.039,3.161,5.486,7.2,5.486V5.967z"/>
<path fill="#F7F5F5" d="M10.783,14.64c-0.296-0.049-0.545-0.256-0.631-0.543c-0.103-0.348-0.208-0.907-0.208-1.729
	c0-1.6,0.773-2.4,1.586-2.4s1.614,0.8,1.614,2.4c0,0.773-0.094,1.406-0.19,1.854c-0.091,0.421-0.491,0.698-0.916,0.628L10.783,14.64
	z"/>
<path fill="#C27BC6" d="M13.144,12.367c0-1.333-0.557-2.102-1.212-2.325h0c-0.649,0.223-1.187,0.992-1.187,2.325
	c0,1.108,0.19,1.918,0.308,2.317l0.846,0.141l0.14,0.023c0.425,0.071,0.825-0.207,0.916-0.628
	C13.05,13.773,13.144,13.141,13.144,12.367z"/>
<path fill="#373F3F" d="M13.144,12.367c0-1.333-0.557-2.103-1.213-2.325c-0.649,0.223-1.187,0.992-1.187,2.325
	c0,0.336,0.018,0.641,0.045,0.916c0.036,0.356,0.312,0.638,0.665,0.697l0.705,0.118c0.451,0.075,0.876-0.238,0.928-0.693
	C13.121,13.097,13.144,12.75,13.144,12.367z"/>
<circle fill="#FFF9F7" cx="11.934" cy="11.167" r="0.4"/>
<path fill="#F7F5F5" d="M20.305,14.64c0.295-0.049,0.545-0.256,0.631-0.543c0.102-0.348,0.207-0.907,0.207-1.729
	c0-1.6-0.771-2.4-1.586-2.4c-0.813,0-1.613,0.8-1.613,2.4c0,0.773,0.094,1.406,0.191,1.854c0.09,0.421,0.49,0.698,0.914,0.628
	L20.305,14.64z"/>
<path fill="#B370B9" d="M17.943,12.367c0-1.333,0.557-2.102,1.213-2.325l0,0c0.648,0.223,1.188,0.992,1.188,2.325
	c0,1.108-0.191,1.918-0.309,2.317l-0.846,0.141l-0.141,0.023c-0.424,0.071-0.824-0.207-0.914-0.628
	C18.037,13.773,17.943,13.141,17.943,12.367z"/>
<path fill="#2B3332" d="M17.943,12.367c0-1.333,0.557-2.103,1.213-2.325c0.648,0.223,1.188,0.992,1.188,2.325
	c0,0.336-0.018,0.641-0.045,0.916c-0.037,0.356-0.313,0.638-0.666,0.697l-0.705,0.118c-0.451,0.075-0.875-0.238-0.928-0.693
	C17.967,13.097,17.943,12.75,17.943,12.367z"/>
<circle fill="#FFF9F7" cx="19.152" cy="11.167" r="0.4"/>
<g>
	<path fill="#56C7CD" d="M8.567,14.957c-0.066-0.235-0.117-0.485-0.154-0.744C8.449,14.474,8.501,14.722,8.567,14.957z"/>
	<path fill="#56C7CD" d="M8.401,14.139c-0.037-0.272-0.058-0.556-0.058-0.857C8.343,13.583,8.367,13.866,8.401,14.139z"/>
	<path fill="#51BAC5" d="M8.567,14.958c0.777,2.766,3.558,3.81,6.976,3.81v-2.057c-0.543-0.038-1.078-0.666-1.601-0.744
		C11.923,15.667,10.081,15.653,8.567,14.958z"/>
</g>
<g>
	<path fill="#51BAC5" d="M22.682,14.164c0.037-0.281,0.063-0.571,0.063-0.882C22.744,13.593,22.721,13.885,22.682,14.164z"/>
	<path fill="#4CAEBC" d="M22.5,15.026c-1.518,0.676-3.35,0.676-5.357,0.956c-0.506,0.07-1.023,0.735-1.549,0.735
		c-0.017,0-0.034-0.006-0.05-0.008v2.059c3.691,0,6.64-1.215,7.123-4.506C22.625,14.529,22.572,14.785,22.5,15.026z"/>
</g>
<path fill="#56C7CD" d="M8.343,21.967c0-1.375,0.399-2.65,1.068-3.743l-2.551-1.075c-0.842-0.355-1.816-0.028-2.274,0.764
	c-0.458,0.792-0.253,1.801,0.476,2.352l3.344,2.531C8.375,22.521,8.343,22.248,8.343,21.967z"/>
<path fill="#51BAC5" d="M23.943,29.967h-0.4c0,0-0.002-2.377-1.578-4.764c-0.133,0.262-0.273,0.52-0.436,0.764
	c-0.764,1.143-1.852,2.045-3.125,2.598c0.16,0.557,0.309,1.385,0.336,2.604c0.004,0.219,0.178,0.4,0.398,0.4h5.605
	c0.219,0,0.398-0.18,0.398-0.4C25.143,30.504,24.605,29.967,23.943,29.967z"/>
<path fill="#56C7CD" d="M9.558,25.967c-0.164-0.244-0.303-0.502-0.436-0.764c-1.577,2.387-1.579,4.764-1.579,4.764h-0.4
	c-0.663,0-1.2,0.537-1.2,1.201c0,0.219,0.179,0.398,0.4,0.398h5.606c0.218,0,0.394-0.18,0.398-0.398
	c0.026-1.219,0.175-2.049,0.335-2.604C11.41,28.012,10.322,27.109,9.558,25.967z"/>
<g id="labels">
</g>
<g>
	<ellipse fill="#E4C91E" cx="19.729" cy="5.333" rx="0.354" ry="1.5"/>
	<g>
		<ellipse fill="#231F20" cx="15.375" cy="8.583" rx="8.292" ry="1.208"/>
		<rect x="11" y="1.791" fill="#231F20" width="8.75" height="6.667"/>
		<ellipse fill="#231F20" cx="15.354" cy="1.791" rx="4.354" ry="1.083"/>
	</g>
	<g>
		<ellipse fill="#893F1D" cx="12.916" cy="5.833" rx="1.042" ry="1.417"/>
		<ellipse fill="#893F1D" cx="17.958" cy="5.958" rx="1.042" ry="1.417"/>
		<circle cx="12.854" cy="5.937" r="0.271"/>
		<circle cx="18.041" cy="6.083" r="0.271"/>
	</g>
</g>
</svg>
