<?xml version="1.0" encoding="utf-8"?>
<!-- Generator: Adobe Illustrator 13.0.0, SVG Export Plug-In . SVG Version: 6.00 Build 14948)  -->
<!DOCTYPE svg PUBLIC "-//W3C//DTD SVG 1.1//EN" "http://www.w3.org/Graphics/SVG/1.1/DTD/svg11.dtd">
<svg version="1.1" id="Layer_1" xmlns="http://www.w3.org/2000/svg" xmlns:xlink="http://www.w3.org/1999/xlink" x="0px" y="0px"
	 width="32px" height="32px" viewBox="0 0 32 32" enable-background="new 0 0 32 32" xml:space="preserve">
<path fill="#FFEAA7" d="M24.083,21.783c0-4.418-3.581-8-8-8v16C20.502,29.783,24.083,26.203,24.083,21.783z"/>
<path fill="#FEF1C6" d="M16.083,13.784c-4.418,0-8,3.582-8,8c0,4.42,3.582,8,8,8V13.784z"/>
<g>
	<path fill="#FFF5D8" d="M10.098,17.783h5.985v-3.2C13.587,14.583,11.389,15.854,10.098,17.783z"/>
	<path fill="#FEF1C6" d="M22.069,17.783c-1.293-1.929-3.49-3.2-5.986-3.2v3.2H22.069z"/>
	<path fill="#FFEAA7" d="M16.083,17.783v4h7.2c0-1.48-0.448-2.855-1.214-4H16.083z"/>
	<path fill="#FFE28A" d="M16.083,25.783h5.986c0.766-1.143,1.214-2.518,1.214-4h-7.2V25.783z"/>
	<path fill="#FFD96C" d="M16.083,25.783v3.201c2.496,0,4.694-1.271,5.986-3.201H16.083z"/>
	<path fill="#FEF1C6" d="M16.083,17.783h-5.985c-0.767,1.145-1.215,2.52-1.215,4h7.2V17.783z"/>
	<path fill="#FFEAA7" d="M16.083,25.783v-4h-7.2c0,1.482,0.448,2.857,1.215,4H16.083z"/>
	<path fill="#FFE28A" d="M10.098,25.783c1.292,1.93,3.489,3.201,5.985,3.201v-3.201H10.098z"/>
	<path fill="#7FB8E0" d="M27.039,17.728c-0.456-0.792-1.431-1.119-2.273-0.764l-2.551,1.075c0.669,1.094,1.068,2.369,1.068,3.744
		c0,0.281-0.031,0.555-0.063,0.826l3.344-2.531C27.294,19.527,27.497,18.52,27.039,17.728z"/>
</g>
<path fill="#8EC0E0" d="M23.283,13.098c0-4.041-3.161-7.314-7.2-7.314v12.8C20.122,18.584,23.283,17.137,23.283,13.098z"/>
<path fill="#9FC9E4" d="M16.083,5.784c-4.039,0-7.2,3.274-7.2,7.314c0,4.039,3.161,5.486,7.2,5.486V5.784z"/>
<path fill="#F7F5F5" d="M11.322,14.456c-0.296-0.049-0.545-0.256-0.631-0.543c-0.103-0.348-0.208-0.907-0.208-1.729
	c0-1.6,0.773-2.4,1.586-2.4s1.614,0.8,1.614,2.4c0,0.773-0.094,1.406-0.19,1.854c-0.091,0.421-0.491,0.698-0.916,0.628
	L11.322,14.456z"/>
<path fill="#C27BC6" d="M13.683,12.184c0-1.333-0.557-2.102-1.212-2.325c0,0,0,0,0,0c-0.649,0.223-1.187,0.992-1.187,2.325
	c0,1.108,0.19,1.918,0.308,2.317l0.846,0.141l0.14,0.023c0.425,0.071,0.825-0.207,0.916-0.628
	C13.589,13.59,13.683,12.957,13.683,12.184z"/>
<path fill="#373F3F" d="M13.683,12.184c0-1.333-0.557-2.103-1.213-2.325c-0.649,0.223-1.187,0.992-1.187,2.325
	c0,0.336,0.018,0.641,0.045,0.916c0.036,0.356,0.312,0.638,0.665,0.697l0.705,0.118c0.451,0.075,0.876-0.238,0.928-0.693
	C13.66,12.913,13.683,12.566,13.683,12.184z"/>
<circle fill="#F7F5F5" cx="12.473" cy="10.984" r="0.4"/>
<path fill="#F7F5F5" d="M20.844,14.456c0.296-0.049,0.546-0.256,0.632-0.543c0.102-0.348,0.207-0.907,0.207-1.729
	c0-1.6-0.772-2.4-1.586-2.4s-1.613,0.8-1.613,2.4c0,0.773,0.094,1.406,0.19,1.854c0.091,0.421,0.49,0.698,0.915,0.628L20.844,14.456
	z"/>
<path fill="#B370B9" d="M18.483,12.184c0-1.333,0.556-2.102,1.212-2.325l0,0c0.649,0.223,1.188,0.992,1.188,2.325
	c0,1.108-0.19,1.918-0.308,2.317l-0.846,0.141l-0.141,0.023c-0.425,0.071-0.824-0.207-0.915-0.628
	C18.577,13.59,18.483,12.957,18.483,12.184z"/>
<path fill="#2B3332" d="M18.483,12.184c0-1.333,0.556-2.103,1.212-2.325c0.649,0.223,1.188,0.992,1.188,2.325
	c0,0.336-0.017,0.641-0.045,0.916c-0.036,0.356-0.313,0.638-0.666,0.697l-0.704,0.118c-0.451,0.075-0.875-0.238-0.929-0.693
	C18.507,12.913,18.483,12.566,18.483,12.184z"/>
<circle fill="#F7F5F5" cx="19.692" cy="10.984" r="0.4"/>
<g>
	<path fill="#56C7CD" d="M9.107,14.773c-0.066-0.235-0.117-0.485-0.154-0.744C8.988,14.291,9.041,14.538,9.107,14.773z"/>
	<path fill="#56C7CD" d="M8.94,13.956c-0.037-0.272-0.058-0.556-0.058-0.857C8.883,13.399,8.906,13.682,8.94,13.956z"/>
	<path fill="#8EC0E0" d="M9.107,14.774c0.777,2.766,3.558,3.81,6.976,3.81v-2.057c-0.543-0.038-1.078-0.666-1.601-0.744
		C12.463,15.483,10.621,15.47,9.107,14.774z"/>
</g>
<g>
	<path fill="#51BAC5" d="M23.222,13.98c0.036-0.281,0.062-0.571,0.062-0.882C23.283,13.409,23.26,13.701,23.222,13.98z"/>
	<path fill="#7FB8E0" d="M23.039,14.842c-1.517,0.676-3.35,0.676-5.356,0.956c-0.506,0.07-1.023,0.735-1.55,0.735
		c-0.017,0-0.034-0.006-0.05-0.008v2.059c3.69,0,6.641-1.215,7.123-4.506C23.164,14.345,23.111,14.601,23.039,14.842z"/>
</g>
<path fill="#8EC0E0" d="M8.883,21.783c0-1.375,0.399-2.65,1.068-3.743L7.4,16.965c-0.842-0.355-1.816-0.028-2.274,0.764
	c-0.458,0.792-0.253,1.801,0.476,2.352l3.344,2.531C8.914,22.338,8.883,22.064,8.883,21.783z"/>
<path fill="#7FB8E0" d="M24.483,29.783h-0.4c0,0-0.002-2.377-1.578-4.764c-0.133,0.262-0.273,0.52-0.436,0.764
	c-0.765,1.143-1.852,2.045-3.125,2.598c0.16,0.557,0.309,1.385,0.335,2.604c0.005,0.219,0.179,0.4,0.398,0.4h5.605
	c0.22,0,0.399-0.18,0.399-0.4C25.683,30.32,25.146,29.783,24.483,29.783z"/>
<path fill="#8EC0E0" d="M10.098,25.783c-0.164-0.244-0.303-0.502-0.436-0.764c-1.577,2.387-1.579,4.764-1.579,4.764h-0.4
	c-0.663,0-1.2,0.537-1.2,1.201c0,0.219,0.179,0.398,0.4,0.398h5.606c0.218,0,0.394-0.18,0.398-0.398
	c0.026-1.219,0.175-2.049,0.335-2.604C11.949,27.828,10.861,26.926,10.098,25.783z"/>
<g id="labels">
</g>
<g>
	<ellipse fill="#E4C91E" cx="20.396" cy="4.5" rx="0.354" ry="1.5"/>
	<g>
		<ellipse fill="#231F20" cx="16.042" cy="7.75" rx="8.292" ry="1.208"/>
		<rect x="11.667" y="0.958" fill="#231F20" width="8.75" height="6.667"/>
		<ellipse fill="#231F20" cx="16.021" cy="0.958" rx="4.354" ry="1.083"/>
	</g>
	<g>
		<ellipse fill="#893F1D" cx="13.583" cy="5" rx="1.042" ry="1.417"/>
		<ellipse fill="#893F1D" cx="18.625" cy="5.125" rx="1.042" ry="1.417"/>
		<circle cx="13.521" cy="5.104" r="0.271"/>
		<circle cx="18.708" cy="5.25" r="0.271"/>
	</g>
</g>
</svg>
