<?xml version="1.0" encoding="utf-8"?>
<!-- Generator: Adobe Illustrator 13.0.0, SVG Export Plug-In . SVG Version: 6.00 Build 14948)  -->
<!DOCTYPE svg PUBLIC "-//W3C//DTD SVG 1.1//EN" "http://www.w3.org/Graphics/SVG/1.1/DTD/svg11.dtd">
<svg version="1.1" id="Layer_1" xmlns="http://www.w3.org/2000/svg" xmlns:xlink="http://www.w3.org/1999/xlink" x="0px" y="0px"
	 width="32px" height="32px" viewBox="0 0 32 32" enable-background="new 0 0 32 32" xml:space="preserve">
<g id="labels">
</g>
<g id="icons">
	<g>
		<g>
			<path fill="#434C4B" d="M31.697,13c-7.744,0.05-10.311,8.712-15.105,11.25v2C20.83,22.295,31.773,22.32,32,13.31
				C32.004,13.146,31.861,12.999,31.697,13z"/>
			<path fill="#F7C845" d="M26.572,14.53c-1.002,0.638-1.896,1.431-2.729,2.292c-0.127,1.714,2.444,3.714,3.872,3.785
				c1.117-0.719,2.104-1.572,2.848-2.643C28.857,17.395,26.857,15.965,26.572,14.53z"/>
		</g>
		<g>
			<g>
				<path fill="#687271" d="M15.418,6.271c-2.005-1.306-3.208-3.277-5.985-4.697C6.353,0,2.396,0,1,0
					c0.078,1.241,3.934,4.294,5.896,5.276c1.862,0.931,5.276,0.621,8.069,1.552C15.131,6.759,15.418,6.271,15.418,6.271z"/>
				<path fill="#687271" d="M7.214,0.72C6.479,0.512,5.74,0.364,5.034,0.259c-1.551,0.672-1.862,1.293-2.177,2.14
					C3.34,2.833,3.876,3.27,4.416,3.675C4.724,2.793,5.655,1.552,7.214,0.72z"/>
			</g>
			<g>
				<path fill="#5C6664" d="M15.418,6.271c-2.005-1.306-3.208-3.277-5.985-4.697C6.353,0,2.396,0,1,0
					c0.078,1.241,3.934,4.294,5.896,5.276c1.862,0.931,5.276,0.621,8.069,1.552C15.131,6.759,15.418,6.271,15.418,6.271z"/>
				<path fill="#FFD04D" d="M7.214,0.72C6.479,0.512,5.74,0.364,5.034,0.259c-1.551,0.672-1.862,1.293-2.177,2.14
					C3.34,2.833,3.876,3.27,4.416,3.675C4.724,2.793,5.655,1.552,7.214,0.72z"/>
			</g>
		</g>
		<path fill="#5C6664" d="M12.5,16.143c0,4.107-3.611,6.948-1.935,10.778c0.192,0.438,0.355,0.815,0.503,1.147
			c-0.622,0.183-1.079,0.75-1.079,1.433c0,0.828,0.672,1.5,1.5,1.5c0.608,0,1.13-0.364,1.365-0.884
			c0.626,0.082,1.557-0.055,3.147-0.152V16.143H12.5z"/>
		<path fill="#687271" d="M14.988,30.232C14.988,30.232,15.75,19,16,19v-5l-2-0.75c0,0-2.592,3.085-2.385,5.5
			c0.341,3.984,0.817,9.549,0.941,11.064c-0.514,0.205-0.861,0.578-0.861,1.006c0,0.652,0.792,1.18,1.769,1.18
			s1.769-0.527,1.769-1.18C15.233,30.605,15.14,30.406,14.988,30.232z"/>
		<path fill="#FFE28A" d="M13.609,21.107c-0.068-0.692-0.365-1.316-0.795-1.668c-0.28-0.229-0.596-0.334-0.907-0.299
			c-0.088,0.008-0.172,0.033-0.254,0.062c0.023,0.267,0.046,0.54,0.07,0.817c0.071-0.067,0.155-0.123,0.256-0.134
			c0.013-0.001,0.025-0.001,0.037-0.001c0.131,0,0.247,0.073,0.322,0.135c0.275,0.226,0.477,0.67,0.524,1.162
			c0.036,0.363-0.016,0.731-0.144,1.01c-0.117,0.256-0.287,0.414-0.469,0.432c-0.115,0.016-0.224-0.036-0.313-0.102
			c0.024,0.275,0.047,0.551,0.071,0.826c0.116,0.022,0.282,0.025,0.319,0.021C13.163,23.287,13.727,22.293,13.609,21.107z"/>
		<path fill="#FFD96C" d="M11.859,25.348c-0.053-0.535-0.241-1.031-0.529-1.396c-0.287-0.364-0.651-0.556-1.021-0.57
			c-0.05,0.175-0.11,0.517-0.142,0.777c0.016-0.015,0.054-0.034,0.101-0.034c0.211,0,0.389,0.184,0.476,0.293
			c0.199,0.252,0.331,0.607,0.37,1.004c0.039,0.395-0.02,0.77-0.166,1.055c-0.065,0.127-0.209,0.336-0.411,0.379
			c0.033,0.078,0.217,0.496,0.302,0.69c0.317-0.11,0.588-0.358,0.778-0.728C11.826,26.406,11.913,25.883,11.859,25.348z"/>
		<path fill="#5C6664" d="M16,17.25V14l-2-0.75c0,0-1.036,1.233-1.746,2.75C14,17.25,16,17.25,16,17.25z"/>
		<path fill="#687271" d="M10.185,7.911c-0.393,2.125-0.549,4.029,0.928,5.505c0.938,0.938,3.658,1.735,4.565,2.015
			c0.106,0.033,0.214,0.046,0.322,0.045v-12C13.615,3.477,10.713,5.059,10.185,7.911z"/>
		<g>
			<path fill="none" d="M15.25,7.25c0,0.811,0.396,1.375,0.75,1.375v-2.75C15.646,5.875,15.25,6.439,15.25,7.25z"/>
			<path fill="#FFE28A" d="M15.25,7.25c0-0.811,0.396-1.375,0.75-1.375v-0.75c-0.841,0-1.5,0.934-1.5,2.125s0.659,2.125,1.5,2.125
				v-0.75C15.646,8.625,15.25,8.061,15.25,7.25z"/>
		</g>
		<path fill="#505957" d="M19.5,16.143c0,4.107,3.611,6.948,1.936,10.778c-0.192,0.438-0.355,0.815-0.504,1.147
			c0.623,0.183,1.08,0.75,1.08,1.433c0,0.828-0.673,1.5-1.5,1.5c-0.609,0-1.131-0.364-1.365-0.884
			c-0.627,0.082-1.558-0.055-3.147-0.152V16.143H19.5z"/>
		<path fill="#5C6664" d="M17.012,30.232C17.012,30.232,16.25,19,16,19v-5l2-0.75c0,0,2.592,3.085,2.385,5.5
			c-0.341,3.984-0.816,9.549-0.941,11.064c0.515,0.205,0.861,0.578,0.861,1.006c0,0.652-0.791,1.18-1.769,1.18
			s-1.769-0.527-1.769-1.18C16.768,30.605,16.859,30.406,17.012,30.232z"/>
		<path fill="#505957" d="M16,17.25V14l2-0.75c0,0,1.036,1.233,1.746,2.75C18,17.25,16,17.25,16,17.25z"/>
		<path fill="#5C6664" d="M21.814,7.911c0.394,2.125,0.549,4.029-0.928,5.505c-0.938,0.938-3.658,1.735-4.565,2.015
			c-0.106,0.033-0.214,0.046-0.322,0.045c0,0,0-9.362,0-12C18.385,3.477,21.287,5.059,21.814,7.911z"/>
		<g>
			<path fill="#373F3F" d="M15.138,12.833c-0.122,0-0.184,0.13-0.097,0.206l0.862,0.758c0.027,0.024,0.062,0.035,0.097,0.035v-1
				L15.138,12.833L15.138,12.833z"/>
			<path fill="#2B3332" d="M16.96,13.039c0.086-0.076,0.024-0.206-0.097-0.206h-0.862v1c0.035,0,0.07-0.012,0.097-0.035
				L16.96,13.039z"/>
		</g>
		<g>
			<path fill="#5C6664" d="M16.582,6.271c2.005-1.306,3.208-3.277,5.984-4.697C25.646,0,29.604,0,31,0
				c-0.078,1.241-3.934,4.294-5.896,5.276c-1.861,0.931-5.275,0.621-8.068,1.552C16.869,6.759,16.582,6.271,16.582,6.271z"/>
			<path fill="#F7C845" d="M24.786,0.72c0.735-0.208,1.474-0.355,2.18-0.461c1.552,0.672,1.862,1.293,2.177,2.141
				c-0.481,0.433-1.019,0.87-1.558,1.276C27.275,2.793,26.346,1.552,24.786,0.72z"/>
		</g>
		<g>
			<path fill="none" d="M16.76,7.25c0,0.811-0.396,1.375-0.75,1.375v-2.75C16.365,5.875,16.76,6.439,16.76,7.25z"/>
			<path fill="#FFD96C" d="M16.75,7.25c0-0.811-0.396-1.375-0.75-1.375v-0.75c0.841,0,1.5,0.934,1.5,2.125S16.841,9.375,16,9.375
				v-0.75C16.354,8.625,16.75,8.061,16.75,7.25z"/>
		</g>
		<path fill="#FFD96C" d="M18.4,21.107c0.068-0.692,0.365-1.316,0.795-1.668c0.281-0.229,0.597-0.334,0.908-0.299
			c0.088,0.008,0.172,0.033,0.254,0.062c-0.023,0.267-0.047,0.54-0.07,0.817c-0.071-0.067-0.155-0.123-0.256-0.134
			c-0.014-0.001-0.025-0.001-0.037-0.001c-0.131,0-0.247,0.073-0.322,0.135c-0.275,0.226-0.477,0.67-0.523,1.162
			c-0.037,0.363,0.016,0.731,0.144,1.01c0.117,0.256,0.287,0.414,0.47,0.432c0.114,0.016,0.223-0.036,0.313-0.102
			c-0.024,0.275-0.047,0.551-0.071,0.826c-0.116,0.022-0.282,0.025-0.319,0.021C18.848,23.287,18.284,22.293,18.4,21.107z"/>
		<path fill="#FFD04D" d="M20.15,25.348c0.054-0.535,0.242-1.031,0.529-1.396s0.651-0.556,1.021-0.57
			c0.05,0.175,0.109,0.517,0.142,0.777c-0.016-0.015-0.054-0.034-0.101-0.034c-0.211,0-0.389,0.184-0.477,0.293
			c-0.199,0.252-0.33,0.607-0.369,1.004c-0.039,0.395,0.02,0.77,0.166,1.055c0.064,0.127,0.209,0.336,0.41,0.379
			c-0.033,0.078-0.217,0.496-0.302,0.69c-0.317-0.11-0.588-0.358-0.778-0.728C20.184,26.406,20.098,25.883,20.15,25.348z"/>
		<g>
			<g>
				<path id="SVGID_1_" fill="#E8803A" d="M11.25,8.75C11,10,11.5,11.5,12.5,11.5c0.5,0,1.5-0.331,1.5-0.75
					C14,9,11.348,8.26,11.25,8.75z"/>
			</g>
			<g>
				<defs>
					<path id="SVGID_2_" d="M11.25,8.75C11,10,11.5,11.5,12.5,11.5c0.5,0,1.5-0.331,1.5-0.75C14,9,11.348,8.26,11.25,8.75z"/>
				</defs>
				<clipPath id="SVGID_4_">
					<use xlink:href="#SVGID_2_"  overflow="visible"/>
				</clipPath>
				<ellipse clip-path="url(#SVGID_4_)" fill="#373F3F" cx="12.625" cy="9.5" rx="0.375" ry="1"/>
			</g>
		</g>
		<g>
			<g>
				<path id="SVGID_3_" fill="#DD7731" d="M20.76,8.75c0.25,1.25-0.25,2.75-1.25,2.75c-0.5,0-1.5-0.331-1.5-0.75
					C18.01,9,20.662,8.26,20.76,8.75z"/>
			</g>
			<g>
				<defs>
					<path id="SVGID_5_" d="M20.76,8.75c0.25,1.25-0.25,2.75-1.25,2.75c-0.5,0-1.5-0.331-1.5-0.75C18.01,9,20.662,8.26,20.76,8.75z"
						/>
				</defs>
				<clipPath id="SVGID_6_">
					<use xlink:href="#SVGID_5_"  overflow="visible"/>
				</clipPath>
				<ellipse clip-path="url(#SVGID_6_)" fill="#2B3332" cx="19.385" cy="9.5" rx="0.375" ry="1"/>
			</g>
		</g>
	</g>
</g>
<g>
	<g>
		<ellipse fill="#EE74AA" cx="18.688" cy="3.125" rx="0.688" ry="0.625"/>
		<ellipse fill="#EE74AA" cx="19.625" cy="3.813" rx="0.688" ry="0.625"/>
		<ellipse fill="#EE74AA" cx="18.813" cy="4.625" rx="0.688" ry="0.625"/>
		<ellipse fill="#EE74AA" cx="17.938" cy="3.938" rx="0.688" ry="0.625"/>
		<ellipse fill="#F3AFCC" cx="18.75" cy="3.875" rx="0.469" ry="0.438"/>
	</g>
	<g>
		<ellipse fill="#EE74AA" cx="21.625" cy="5.875" rx="0.688" ry="0.625"/>
		<ellipse fill="#EE74AA" cx="22.563" cy="6.563" rx="0.688" ry="0.625"/>
		<ellipse fill="#EE74AA" cx="21.75" cy="7.375" rx="0.688" ry="0.625"/>
		<ellipse fill="#EE74AA" cx="20.875" cy="6.688" rx="0.688" ry="0.625"/>
		<ellipse fill="#F3AFCC" cx="21.688" cy="6.625" rx="0.469" ry="0.438"/>
	</g>
	<g>
		<ellipse fill="#EC4D9A" cx="20.563" cy="4.281" rx="0.625" ry="0.656"/>
		<ellipse fill="#EC4D9A" cx="21.375" cy="5.063" rx="0.688" ry="0.625"/>
		<ellipse fill="#EC4D9A" cx="20.813" cy="5.75" rx="0.688" ry="0.625"/>
		<ellipse fill="#EC4D9A" cx="19.938" cy="6" rx="0.688" ry="0.625"/>
		<ellipse fill="#EC4D9A" cx="19.563" cy="5" rx="0.688" ry="0.625"/>
		<ellipse fill="#EC4D9A" cx="20.063" cy="4.688" rx="0.688" ry="0.625"/>
		<circle fill="#F5BCD3" cx="20.438" cy="5.375" r="0.625"/>
	</g>
</g>
</svg>
