<?xml version="1.0" encoding="utf-8"?>
<!-- Generator: Adobe Illustrator 13.0.0, SVG Export Plug-In . SVG Version: 6.00 Build 14948)  -->
<!DOCTYPE svg PUBLIC "-//W3C//DTD SVG 1.1//EN" "http://www.w3.org/Graphics/SVG/1.1/DTD/svg11.dtd">
<svg version="1.1" id="Layer_1" xmlns="http://www.w3.org/2000/svg" xmlns:xlink="http://www.w3.org/1999/xlink" x="0px" y="0px"
	 width="32px" height="32px" viewBox="0 0 32 32" enable-background="new 0 0 32 32" xml:space="preserve">
<g id="icons">
	<g>
		<path fill="#65A9DC" d="M3.164,1.982c0,0-1.496-0.564-1.097-1.552c0.399-0.988,3.689-0.282,5.484,2.21
			c1.795,2.492,3.54,5.596,1.595,6.866S5.695,9.365,6,7.907c0,0-2.188-1.49-2.885-2.907C2.418,3.583,2.317,2.593,3.164,1.982z"/>
		<path fill="#5CA3D5" d="M28.836,1.982c0,0,1.496-0.564,1.098-1.552c-0.398-0.988-3.688-0.282-5.483,2.21
			c-1.796,2.492-3.54,5.596-1.597,6.866c1.945,1.27,3.451-0.141,3.146-1.599c0,0,2.188-1.49,2.885-2.907S29.684,2.593,28.836,1.982z
			"/>
		<path fill="#FFEAA7" d="M26,20c0-5.523-4.477-10-10-10v20C21.523,30,26,25.523,26,20z"/>
		<path fill="#FEF1C6" d="M16,10c-5.523,0-10,4.477-10,10c0,5.523,4.477,10,10,10V10z"/>
		<path fill="#FFD96C" d="M16,11c-4.971,0-9,4.029-9,9c0,4.971,4.029,9,9,9V11z"/>
		<path fill="#FFD04D" d="M25,20c0-4.971-4.029-9-9-9v18C20.971,29,25,24.971,25,20z"/>
		<path fill="#65A9DC" d="M7,20c0-1.938,0.618-3.727,1.659-5.196l-7.561,4.537c-0.558,0.335-0.653,1.104-0.193,1.565l0.43,0.43
			c1.027,1.027,2.531,1.417,3.927,1.018l1.919-0.547C7.063,21.223,7,20.618,7,20z"/>
		<path fill="#FFD04D" d="M16,29v-9H7C7,24.971,11.029,29,16,29z"/>
		<path fill="#F7C845" d="M16,29c4.971,0,9-4.029,9-9h-9V29z"/>
		<path fill="#F7C845" d="M16,29v-5l-5.361,3.217C12.137,28.332,13.988,29,16,29z"/>
		<path fill="#F0C13E" d="M21.361,27.217L16,24v5C18.012,29,19.863,28.332,21.361,27.217z"/>
		<path fill="#5CA3D5" d="M24,9c0-4.418-3.512-8-8-8v14C20.488,15,24,13.418,24,9z"/>
		<path fill="#65A9DC" d="M16,1c-4.488,0-8,3.582-8,8s3.512,6,8,6V1z"/>
		<path fill="#65A9DC" d="M16,1c0,0,0.037,11.195,0.056,11.195c0.584,0,1.159-0.727,1.721-0.805
			c2.229-0.305,4.268,0.257,5.953-0.483C23.9,10.339,24,9.71,24,9C24,4.582,20.488,1,16,1z"/>
		<path fill="#71B1E1" d="M8,9c0,0.679,0.092,1.283,0.249,1.833c1.682,0.762,3.729,0.214,5.973,0.542
			c0.581,0.085,1.174,0.772,1.778,0.813V1C11.512,1,8,4.582,8,9z"/>
		<path fill="#FFFFFF" d="M13.198,6.45l-2.25-0.375c-0.26-0.043-0.511,0.122-0.569,0.38C10.153,7.453,9.864,9.75,12,9.75
			c2.213,0,1.823-2.137,1.597-2.945C13.545,6.619,13.389,6.481,13.198,6.45z"/>
		<path fill="#96643B" d="M11.453,6.159c-0.182,0.659-0.922,3.345,1.059,3.542c1.629-0.313,1.291-2.154,1.085-2.894
			c-0.052-0.187-0.208-0.326-0.399-0.358L11.453,6.159z"/>
		<path fill="#373F3F" d="M12.502,9.095c-0.263,0-0.419-0.112-0.548-0.322c-0.296-0.484-0.207-1.807-0.061-2.54l1.141,0.19
			c0.136,0.488,0.358,1.837,0.075,2.34C12.988,8.979,12.765,9.095,12.502,9.095z"/>
		<circle fill="#FFFFFF" cx="12" cy="7" r="0.5"/>
		<path fill="#F7F7F7" d="M18.802,6.45l2.25-0.375c0.261-0.043,0.511,0.122,0.569,0.38C21.848,7.453,22.137,9.75,20,9.75
			c-2.213,0-1.823-2.137-1.598-2.945C18.455,6.619,18.611,6.481,18.802,6.45z"/>
		<path fill="#8D5B36" d="M20.547,6.159c0.182,0.659,0.922,3.345-1.059,3.542c-1.629-0.313-1.291-2.154-1.086-2.894
			c0.053-0.187,0.209-0.326,0.398-0.358L20.547,6.159z"/>
		<path fill="#2B3332" d="M19.498,9.095c0.264,0,0.419-0.112,0.548-0.322c0.296-0.484,0.207-1.807,0.062-2.54l-1.142,0.19
			c-0.136,0.488-0.358,1.837-0.075,2.34C19.012,8.979,19.234,9.095,19.498,9.095z"/>
		<circle fill="#F7F7F7" cx="20" cy="7" r="0.5"/>
		<path fill="#5CA3D5" d="M30.902,19.341l-7.563-4.537C24.382,16.273,25,18.063,25,20c0,0.618-0.063,1.223-0.182,1.805l1.918,0.549
			c1.396,0.398,2.9,0.011,3.928-1.019l0.43-0.43C31.555,20.445,31.46,19.676,30.902,19.341z"/>
		<path fill="#5CA3D5" d="M26.5,30H26c0,0-0.002-2.968-1.971-5.952c-0.945,1.872-2.521,3.37-4.451,4.208
			c0.199,0.694,0.383,1.729,0.417,3.244c0.006,0.273,0.224,0.5,0.498,0.5H27.5c0.275,0,0.5-0.225,0.5-0.5
			C28,30.672,27.328,30,26.5,30z"/>
		<path fill="#65A9DC" d="M7.97,24.048C6.002,27.032,6,30,6,30H5.5C4.672,30,4,30.672,4,31.5C4,31.775,4.224,32,4.5,32h7.008
			c0.273,0,0.492-0.227,0.498-0.5c0.033-1.516,0.216-2.55,0.417-3.244C10.49,27.418,8.915,25.92,7.97,24.048z"/>
	</g>
</g>
<g id="labels">
</g>
<path d="M16.377,4.75c0,0-5.167-0.292-6.167,0.042S9.918,4.478,8.168,6.374s-1.98,4.063-0.958,5.667s8.916,2.499,7.333-5.417
	c1.042-0.416,1.833-0.083,1.833-0.083L16.377,4.75L16.377,4.75z"/>
<path d="M15.977,4.718c0,0,5.167-0.292,6.167,0.042s0.291-0.313,2.041,1.583c1.75,1.896,1.979,4.063,0.959,5.667
	c-1.021,1.604-8.917,2.499-7.334-5.417C16.77,6.177,15.722,6.52,15.977,6.51C16.232,6.5,15.977,4.718,15.977,4.718z"/>
<rect x="25.45" y="8.489" width="0.938" height="0.563"/>
<rect x="6.013" y="8.239" width="0.938" height="0.563"/>
<rect x="14.21" y="4.667" width="3.75" height="1.958"/>
<rect x="14.21" y="5.302" fill="#71B1E1" width="1.958" height="0.563"/>
<rect x="15.989" y="5.302" fill="#65A9DC" width="1.959" height="0.563"/>
</svg>
